<svg width="1363" height="163" viewBox="0 0 1363 163" fill="none" xmlns="http://www.w3.org/2000/svg">
<path d="M0 15C0 6.71573 6.71573 0 15 0H37V163H15C6.71573 163 0 156.284 0 148V15Z" fill="#424242"/>
<rect width="1097" height="163" transform="translate(37)" fill="#F0F0F0"/>
<path d="M101.906 53.9219L94.3945 51.2383V48.0859L104.602 52.375V54.6367L101.906 53.9219ZM94.3945 56.1719L101.918 53.4297L104.602 52.7852V55.0352L94.3945 59.3242V56.1719ZM119.578 53.5117H115.195L115.172 51.0977H118.852C119.5 51.0977 120.031 51.0156 120.445 50.8516C120.859 50.6797 121.168 50.4336 121.371 50.1133C121.582 49.7852 121.688 49.3867 121.688 48.918C121.688 48.3867 121.586 47.957 121.383 47.6289C121.188 47.3008 120.879 47.0625 120.457 46.9141C120.043 46.7656 119.508 46.6914 118.852 46.6914H116.414V61H112.898V43.9375H118.852C119.844 43.9375 120.73 44.0312 121.512 44.2188C122.301 44.4062 122.969 44.6914 123.516 45.0742C124.062 45.457 124.48 45.9414 124.77 46.5273C125.059 47.1055 125.203 47.793 125.203 48.5898C125.203 49.293 125.043 49.9414 124.723 50.5352C124.41 51.1289 123.914 51.6133 123.234 51.9883C122.562 52.3633 121.684 52.5703 120.598 52.6094L119.578 53.5117ZM119.426 61H114.234L115.605 58.2578H119.426C120.043 58.2578 120.547 58.1602 120.938 57.9648C121.328 57.7617 121.617 57.4883 121.805 57.1445C121.992 56.8008 122.086 56.4062 122.086 55.9609C122.086 55.4609 122 55.0273 121.828 54.6602C121.664 54.293 121.398 54.0117 121.031 53.8164C120.664 53.6133 120.18 53.5117 119.578 53.5117H116.191L116.215 51.0977H120.434L121.242 52.0469C122.281 52.0312 123.117 52.2148 123.75 52.5977C124.391 52.9727 124.855 53.4609 125.145 54.0625C125.441 54.6641 125.59 55.3086 125.59 55.9961C125.59 57.0898 125.352 58.0117 124.875 58.7617C124.398 59.5039 123.699 60.0625 122.777 60.4375C121.863 60.8125 120.746 61 119.426 61ZM131.391 51.0859V61H128.016V48.3203H131.191L131.391 51.0859ZM135.211 48.2383L135.152 51.3672C134.988 51.3438 134.789 51.3242 134.555 51.3086C134.328 51.2852 134.121 51.2734 133.934 51.2734C133.457 51.2734 133.043 51.3359 132.691 51.4609C132.348 51.5781 132.059 51.7539 131.824 51.9883C131.598 52.2227 131.426 52.5078 131.309 52.8438C131.199 53.1797 131.137 53.5625 131.121 53.9922L130.441 53.7812C130.441 52.9609 130.523 52.207 130.688 51.5195C130.852 50.8242 131.09 50.2188 131.402 49.7031C131.723 49.1875 132.113 48.7891 132.574 48.5078C133.035 48.2266 133.562 48.0859 134.156 48.0859C134.344 48.0859 134.535 48.1016 134.73 48.1328C134.926 48.1562 135.086 48.1914 135.211 48.2383ZM142.406 61.2344C141.422 61.2344 140.539 61.0781 139.758 60.7656C138.977 60.4453 138.312 60.0039 137.766 59.4414C137.227 58.8789 136.812 58.2266 136.523 57.4844C136.234 56.7344 136.09 55.9375 136.09 55.0938V54.625C136.09 53.6641 136.227 52.7852 136.5 51.9883C136.773 51.1914 137.164 50.5 137.672 49.9141C138.188 49.3281 138.812 48.8789 139.547 48.5664C140.281 48.2461 141.109 48.0859 142.031 48.0859C142.93 48.0859 143.727 48.2344 144.422 48.5312C145.117 48.8281 145.699 49.25 146.168 49.7969C146.645 50.3438 147.004 51 147.246 51.7656C147.488 52.5234 147.609 53.3672 147.609 54.2969V55.7031H137.531V53.4531H144.293V53.1953C144.293 52.7266 144.207 52.3086 144.035 51.9414C143.871 51.5664 143.621 51.2695 143.285 51.0508C142.949 50.832 142.52 50.7227 141.996 50.7227C141.551 50.7227 141.168 50.8203 140.848 51.0156C140.527 51.2109 140.266 51.4844 140.062 51.8359C139.867 52.1875 139.719 52.6016 139.617 53.0781C139.523 53.5469 139.477 54.0625 139.477 54.625V55.0938C139.477 55.6016 139.547 56.0703 139.688 56.5C139.836 56.9297 140.043 57.3008 140.309 57.6133C140.582 57.9258 140.91 58.168 141.293 58.3398C141.684 58.5117 142.125 58.5977 142.617 58.5977C143.227 58.5977 143.793 58.4805 144.316 58.2461C144.848 58.0039 145.305 57.6406 145.688 57.1562L147.328 58.9375C147.062 59.3203 146.699 59.6875 146.238 60.0391C145.785 60.3906 145.238 60.6797 144.598 60.9062C143.957 61.125 143.227 61.2344 142.406 61.2344ZM156.375 58.1406V52.4922C156.375 52.0859 156.309 51.7383 156.176 51.4492C156.043 51.1523 155.836 50.9219 155.555 50.7578C155.281 50.5938 154.926 50.5117 154.488 50.5117C154.113 50.5117 153.789 50.5781 153.516 50.7109C153.242 50.8359 153.031 51.0195 152.883 51.2617C152.734 51.4961 152.66 51.7734 152.66 52.0938H149.285C149.285 51.5547 149.41 51.043 149.66 50.5586C149.91 50.0742 150.273 49.6484 150.75 49.2812C151.227 48.9062 151.793 48.6133 152.449 48.4023C153.113 48.1914 153.855 48.0859 154.676 48.0859C155.66 48.0859 156.535 48.25 157.301 48.5781C158.066 48.9062 158.668 49.3984 159.105 50.0547C159.551 50.7109 159.773 51.5312 159.773 52.5156V57.9414C159.773 58.6367 159.816 59.207 159.902 59.6523C159.988 60.0898 160.113 60.4727 160.277 60.8008V61H156.867C156.703 60.6562 156.578 60.2266 156.492 59.7109C156.414 59.1875 156.375 58.6641 156.375 58.1406ZM156.82 53.2773L156.844 55.1875H154.957C154.512 55.1875 154.125 55.2383 153.797 55.3398C153.469 55.4414 153.199 55.5859 152.988 55.7734C152.777 55.9531 152.621 56.1641 152.52 56.4062C152.426 56.6484 152.379 56.9141 152.379 57.2031C152.379 57.4922 152.445 57.7539 152.578 57.9883C152.711 58.2148 152.902 58.3945 153.152 58.5273C153.402 58.6523 153.695 58.7148 154.031 58.7148C154.539 58.7148 154.98 58.6133 155.355 58.4102C155.73 58.207 156.02 57.957 156.223 57.6602C156.434 57.3633 156.543 57.082 156.551 56.8164L157.441 58.2461C157.316 58.5664 157.145 58.8984 156.926 59.2422C156.715 59.5859 156.445 59.9102 156.117 60.2148C155.789 60.5117 155.395 60.7578 154.934 60.9531C154.473 61.1406 153.926 61.2344 153.293 61.2344C152.488 61.2344 151.758 61.0742 151.102 60.7539C150.453 60.4258 149.938 59.9766 149.555 59.4062C149.18 58.8281 148.992 58.1719 148.992 57.4375C148.992 56.7734 149.117 56.1836 149.367 55.668C149.617 55.1523 149.984 54.7188 150.469 54.3672C150.961 54.0078 151.574 53.7383 152.309 53.5586C153.043 53.3711 153.895 53.2773 154.863 53.2773H156.82ZM168.586 48.3203V50.7109H161.203V48.3203H168.586ZM163.031 45.1914H166.406V57.1797C166.406 57.5469 166.453 57.8281 166.547 58.0234C166.648 58.2188 166.797 58.3555 166.992 58.4336C167.188 58.5039 167.434 58.5391 167.73 58.5391C167.941 58.5391 168.129 58.5312 168.293 58.5156C168.465 58.4922 168.609 58.4688 168.727 58.4453L168.738 60.9297C168.449 61.0234 168.137 61.0977 167.801 61.1523C167.465 61.207 167.094 61.2344 166.688 61.2344C165.945 61.2344 165.297 61.1133 164.742 60.8711C164.195 60.6211 163.773 60.2227 163.477 59.6758C163.18 59.1289 163.031 58.4102 163.031 57.5195V45.1914ZM173.801 43V61H170.426V43H173.801ZM173.32 54.2148H172.395C172.402 53.332 172.52 52.5195 172.746 51.7773C172.973 51.0273 173.297 50.3789 173.719 49.832C174.141 49.2773 174.645 48.8477 175.23 48.543C175.824 48.2383 176.48 48.0859 177.199 48.0859C177.824 48.0859 178.391 48.1758 178.898 48.3555C179.414 48.5273 179.855 48.8086 180.223 49.1992C180.598 49.582 180.887 50.0859 181.09 50.7109C181.293 51.3359 181.395 52.0938 181.395 52.9844V61H177.996V52.9609C177.996 52.3984 177.914 51.957 177.75 51.6367C177.594 51.3086 177.363 51.0781 177.059 50.9453C176.762 50.8047 176.395 50.7344 175.957 50.7344C175.473 50.7344 175.059 50.8242 174.715 51.0039C174.379 51.1836 174.109 51.4336 173.906 51.7539C173.703 52.0664 173.555 52.4336 173.461 52.8555C173.367 53.2773 173.32 53.7305 173.32 54.2148ZM189.797 61.2344C188.812 61.2344 187.93 61.0781 187.148 60.7656C186.367 60.4453 185.703 60.0039 185.156 59.4414C184.617 58.8789 184.203 58.2266 183.914 57.4844C183.625 56.7344 183.48 55.9375 183.48 55.0938V54.625C183.48 53.6641 183.617 52.7852 183.891 51.9883C184.164 51.1914 184.555 50.5 185.062 49.9141C185.578 49.3281 186.203 48.8789 186.938 48.5664C187.672 48.2461 188.5 48.0859 189.422 48.0859C190.32 48.0859 191.117 48.2344 191.812 48.5312C192.508 48.8281 193.09 49.25 193.559 49.7969C194.035 50.3438 194.395 51 194.637 51.7656C194.879 52.5234 195 53.3672 195 54.2969V55.7031H184.922V53.4531H191.684V53.1953C191.684 52.7266 191.598 52.3086 191.426 51.9414C191.262 51.5664 191.012 51.2695 190.676 51.0508C190.34 50.832 189.91 50.7227 189.387 50.7227C188.941 50.7227 188.559 50.8203 188.238 51.0156C187.918 51.2109 187.656 51.4844 187.453 51.8359C187.258 52.1875 187.109 52.6016 187.008 53.0781C186.914 53.5469 186.867 54.0625 186.867 54.625V55.0938C186.867 55.6016 186.938 56.0703 187.078 56.5C187.227 56.9297 187.434 57.3008 187.699 57.6133C187.973 57.9258 188.301 58.168 188.684 58.3398C189.074 58.5117 189.516 58.5977 190.008 58.5977C190.617 58.5977 191.184 58.4805 191.707 58.2461C192.238 58.0039 192.695 57.6406 193.078 57.1562L194.719 58.9375C194.453 59.3203 194.09 59.6875 193.629 60.0391C193.176 60.3906 192.629 60.6797 191.988 60.9062C191.348 61.125 190.617 61.2344 189.797 61.2344ZM201.246 58.293L204.645 43.9375H206.543L206.977 46.3281L203.355 61H201.316L201.246 58.293ZM199.5 43.9375L202.312 58.293L202.078 61H199.805L196.02 43.9375H199.5ZM209.965 58.2344L212.742 43.9375H216.223L212.449 61H210.176L209.965 58.2344ZM207.609 43.9375L211.031 58.3516L210.938 61H208.898L205.254 46.3164L205.723 43.9375H207.609ZM221.484 48.3203V61H218.098V48.3203H221.484ZM217.887 45.0156C217.887 44.5234 218.059 44.1172 218.402 43.7969C218.746 43.4766 219.207 43.3164 219.785 43.3164C220.355 43.3164 220.812 43.4766 221.156 43.7969C221.508 44.1172 221.684 44.5234 221.684 45.0156C221.684 45.5078 221.508 45.9141 221.156 46.2344C220.812 46.5547 220.355 46.7148 219.785 46.7148C219.207 46.7148 218.746 46.5547 218.402 46.2344C218.059 45.9141 217.887 45.5078 217.887 45.0156ZM231.129 57.4961C231.129 57.2539 231.059 57.0352 230.918 56.8398C230.777 56.6445 230.516 56.4648 230.133 56.3008C229.758 56.1289 229.215 55.9727 228.504 55.832C227.863 55.6914 227.266 55.5156 226.711 55.3047C226.164 55.0859 225.688 54.8242 225.281 54.5195C224.883 54.2148 224.57 53.8555 224.344 53.4414C224.117 53.0195 224.004 52.5391 224.004 52C224.004 51.4688 224.117 50.9688 224.344 50.5C224.578 50.0312 224.91 49.6172 225.34 49.2578C225.777 48.8906 226.309 48.6055 226.934 48.4023C227.566 48.1914 228.277 48.0859 229.066 48.0859C230.168 48.0859 231.113 48.2617 231.902 48.6133C232.699 48.9648 233.309 49.4492 233.73 50.0664C234.16 50.6758 234.375 51.3711 234.375 52.1523H231C231 51.8242 230.93 51.5312 230.789 51.2734C230.656 51.0078 230.445 50.8008 230.156 50.6523C229.875 50.4961 229.508 50.418 229.055 50.418C228.68 50.418 228.355 50.4844 228.082 50.6172C227.809 50.7422 227.598 50.9141 227.449 51.1328C227.309 51.3438 227.238 51.5781 227.238 51.8359C227.238 52.0312 227.277 52.207 227.355 52.3633C227.441 52.5117 227.578 52.6484 227.766 52.7734C227.953 52.8984 228.195 53.0156 228.492 53.125C228.797 53.2266 229.172 53.3203 229.617 53.4062C230.531 53.5938 231.348 53.8398 232.066 54.1445C232.785 54.4414 233.355 54.8477 233.777 55.3633C234.199 55.8711 234.41 56.5391 234.41 57.3672C234.41 57.9297 234.285 58.4453 234.035 58.9141C233.785 59.3828 233.426 59.793 232.957 60.1445C232.488 60.4883 231.926 60.7578 231.27 60.9531C230.621 61.1406 229.891 61.2344 229.078 61.2344C227.898 61.2344 226.898 61.0234 226.078 60.6016C225.266 60.1797 224.648 59.6445 224.227 58.9961C223.812 58.3398 223.605 57.668 223.605 56.9805H226.805C226.82 57.4414 226.938 57.8125 227.156 58.0938C227.383 58.375 227.668 58.5781 228.012 58.7031C228.363 58.8281 228.742 58.8906 229.148 58.8906C229.586 58.8906 229.949 58.832 230.238 58.7148C230.527 58.5898 230.746 58.4258 230.895 58.2227C231.051 58.0117 231.129 57.7695 231.129 57.4961ZM242.438 61.2344C241.453 61.2344 240.57 61.0781 239.789 60.7656C239.008 60.4453 238.344 60.0039 237.797 59.4414C237.258 58.8789 236.844 58.2266 236.555 57.4844C236.266 56.7344 236.121 55.9375 236.121 55.0938V54.625C236.121 53.6641 236.258 52.7852 236.531 51.9883C236.805 51.1914 237.195 50.5 237.703 49.9141C238.219 49.3281 238.844 48.8789 239.578 48.5664C240.312 48.2461 241.141 48.0859 242.062 48.0859C242.961 48.0859 243.758 48.2344 244.453 48.5312C245.148 48.8281 245.73 49.25 246.199 49.7969C246.676 50.3438 247.035 51 247.277 51.7656C247.52 52.5234 247.641 53.3672 247.641 54.2969V55.7031H237.562V53.4531H244.324V53.1953C244.324 52.7266 244.238 52.3086 244.066 51.9414C243.902 51.5664 243.652 51.2695 243.316 51.0508C242.98 50.832 242.551 50.7227 242.027 50.7227C241.582 50.7227 241.199 50.8203 240.879 51.0156C240.559 51.2109 240.297 51.4844 240.094 51.8359C239.898 52.1875 239.75 52.6016 239.648 53.0781C239.555 53.5469 239.508 54.0625 239.508 54.625V55.0938C239.508 55.6016 239.578 56.0703 239.719 56.5C239.867 56.9297 240.074 57.3008 240.34 57.6133C240.613 57.9258 240.941 58.168 241.324 58.3398C241.715 58.5117 242.156 58.5977 242.648 58.5977C243.258 58.5977 243.824 58.4805 244.348 58.2461C244.879 58.0039 245.336 57.6406 245.719 57.1562L247.359 58.9375C247.094 59.3203 246.73 59.6875 246.27 60.0391C245.816 60.3906 245.27 60.6797 244.629 60.9062C243.988 61.125 243.258 61.2344 242.438 61.2344Z" fill="#888888"/>
<path d="M106.688 119H99.1172L99.1641 112.672H106.688C108.25 112.672 109.57 112.297 110.648 111.547C111.742 110.797 112.57 109.68 113.133 108.195C113.711 106.695 114 104.852 114 102.664V101.188C114 99.5469 113.836 98.1094 113.508 96.875C113.195 95.625 112.727 94.5859 112.102 93.7578C111.477 92.9141 110.695 92.2812 109.758 91.8594C108.836 91.4375 107.773 91.2266 106.57 91.2266H98.9766V84.875H106.57C108.883 84.875 111 85.2734 112.922 86.0703C114.859 86.8516 116.531 87.9766 117.938 89.4453C119.359 90.8984 120.453 92.625 121.219 94.625C122 96.6094 122.391 98.8125 122.391 101.234V102.664C122.391 105.07 122 107.273 121.219 109.273C120.453 111.273 119.367 113 117.961 114.453C116.555 115.906 114.891 117.031 112.969 117.828C111.062 118.609 108.969 119 106.688 119ZM103.828 84.875V119H95.6016V84.875H103.828ZM139.477 112.625V102.172C139.477 101.453 139.375 100.836 139.172 100.32C138.969 99.8047 138.648 99.4062 138.211 99.125C137.773 98.8281 137.188 98.6797 136.453 98.6797C135.859 98.6797 135.352 98.7812 134.93 98.9844C134.508 99.1875 134.188 99.4922 133.969 99.8984C133.75 100.305 133.641 100.82 133.641 101.445H125.742C125.742 100.273 126 99.1875 126.516 98.1875C127.047 97.1719 127.797 96.2891 128.766 95.5391C129.75 94.7891 130.922 94.2109 132.281 93.8047C133.656 93.3828 135.188 93.1719 136.875 93.1719C138.891 93.1719 140.688 93.5078 142.266 94.1797C143.859 94.8516 145.117 95.8594 146.039 97.2031C146.961 98.5312 147.422 100.203 147.422 102.219V112.602C147.422 114.258 147.516 115.516 147.703 116.375C147.891 117.219 148.156 117.961 148.5 118.602V119H140.578C140.203 118.219 139.922 117.266 139.734 116.141C139.562 115 139.477 113.828 139.477 112.625ZM140.438 103.508L140.484 107.727H136.992C136.258 107.727 135.633 107.828 135.117 108.031C134.617 108.234 134.211 108.516 133.898 108.875C133.602 109.219 133.383 109.609 133.242 110.047C133.117 110.484 133.055 110.945 133.055 111.43C133.055 111.898 133.164 112.32 133.383 112.695C133.617 113.055 133.93 113.336 134.32 113.539C134.711 113.742 135.148 113.844 135.633 113.844C136.508 113.844 137.25 113.68 137.859 113.352C138.484 113.008 138.961 112.594 139.289 112.109C139.617 111.625 139.781 111.172 139.781 110.75L141.516 113.984C141.203 114.609 140.844 115.242 140.438 115.883C140.047 116.523 139.555 117.117 138.961 117.664C138.383 118.195 137.672 118.633 136.828 118.977C135.984 119.305 134.961 119.469 133.758 119.469C132.195 119.469 130.758 119.148 129.445 118.508C128.148 117.867 127.109 116.977 126.328 115.836C125.547 114.68 125.156 113.352 125.156 111.852C125.156 110.539 125.391 109.367 125.859 108.336C126.344 107.305 127.07 106.43 128.039 105.711C129.008 104.992 130.242 104.445 131.742 104.07C133.242 103.695 135.008 103.508 137.039 103.508H140.438ZM165.164 93.6406V99.125H149.883V93.6406H165.164ZM153.094 87.3359H160.992V110.727C160.992 111.398 161.07 111.922 161.227 112.297C161.383 112.656 161.648 112.914 162.023 113.07C162.414 113.211 162.93 113.281 163.57 113.281C164.023 113.281 164.398 113.273 164.695 113.258C164.992 113.227 165.273 113.188 165.539 113.141V118.789C164.867 119.008 164.164 119.172 163.43 119.281C162.695 119.406 161.914 119.469 161.086 119.469C159.398 119.469 157.953 119.203 156.75 118.672C155.562 118.141 154.656 117.305 154.031 116.164C153.406 115.023 153.094 113.539 153.094 111.711V87.3359ZM181.477 112.625V102.172C181.477 101.453 181.375 100.836 181.172 100.32C180.969 99.8047 180.648 99.4062 180.211 99.125C179.773 98.8281 179.188 98.6797 178.453 98.6797C177.859 98.6797 177.352 98.7812 176.93 98.9844C176.508 99.1875 176.188 99.4922 175.969 99.8984C175.75 100.305 175.641 100.82 175.641 101.445H167.742C167.742 100.273 168 99.1875 168.516 98.1875C169.047 97.1719 169.797 96.2891 170.766 95.5391C171.75 94.7891 172.922 94.2109 174.281 93.8047C175.656 93.3828 177.188 93.1719 178.875 93.1719C180.891 93.1719 182.688 93.5078 184.266 94.1797C185.859 94.8516 187.117 95.8594 188.039 97.2031C188.961 98.5312 189.422 100.203 189.422 102.219V112.602C189.422 114.258 189.516 115.516 189.703 116.375C189.891 117.219 190.156 117.961 190.5 118.602V119H182.578C182.203 118.219 181.922 117.266 181.734 116.141C181.562 115 181.477 113.828 181.477 112.625ZM182.438 103.508L182.484 107.727H178.992C178.258 107.727 177.633 107.828 177.117 108.031C176.617 108.234 176.211 108.516 175.898 108.875C175.602 109.219 175.383 109.609 175.242 110.047C175.117 110.484 175.055 110.945 175.055 111.43C175.055 111.898 175.164 112.32 175.383 112.695C175.617 113.055 175.93 113.336 176.32 113.539C176.711 113.742 177.148 113.844 177.633 113.844C178.508 113.844 179.25 113.68 179.859 113.352C180.484 113.008 180.961 112.594 181.289 112.109C181.617 111.625 181.781 111.172 181.781 110.75L183.516 113.984C183.203 114.609 182.844 115.242 182.438 115.883C182.047 116.523 181.555 117.117 180.961 117.664C180.383 118.195 179.672 118.633 178.828 118.977C177.984 119.305 176.961 119.469 175.758 119.469C174.195 119.469 172.758 119.148 171.445 118.508C170.148 117.867 169.109 116.977 168.328 115.836C167.547 114.68 167.156 113.352 167.156 111.852C167.156 110.539 167.391 109.367 167.859 108.336C168.344 107.305 169.07 106.43 170.039 105.711C171.008 104.992 172.242 104.445 173.742 104.07C175.242 103.695 177.008 103.508 179.039 103.508H182.438ZM219.047 110.961L226.148 84.875H235.359L223.852 119H217.898L219.047 110.961ZM212.602 84.875L219.703 110.961L220.898 119H214.875L203.438 84.875H212.602ZM249.586 112.625V102.172C249.586 101.453 249.484 100.836 249.281 100.32C249.078 99.8047 248.758 99.4062 248.32 99.125C247.883 98.8281 247.297 98.6797 246.562 98.6797C245.969 98.6797 245.461 98.7812 245.039 98.9844C244.617 99.1875 244.297 99.4922 244.078 99.8984C243.859 100.305 243.75 100.82 243.75 101.445H235.852C235.852 100.273 236.109 99.1875 236.625 98.1875C237.156 97.1719 237.906 96.2891 238.875 95.5391C239.859 94.7891 241.031 94.2109 242.391 93.8047C243.766 93.3828 245.297 93.1719 246.984 93.1719C249 93.1719 250.797 93.5078 252.375 94.1797C253.969 94.8516 255.227 95.8594 256.148 97.2031C257.07 98.5312 257.531 100.203 257.531 102.219V112.602C257.531 114.258 257.625 115.516 257.812 116.375C258 117.219 258.266 117.961 258.609 118.602V119H250.688C250.312 118.219 250.031 117.266 249.844 116.141C249.672 115 249.586 113.828 249.586 112.625ZM250.547 103.508L250.594 107.727H247.102C246.367 107.727 245.742 107.828 245.227 108.031C244.727 108.234 244.32 108.516 244.008 108.875C243.711 109.219 243.492 109.609 243.352 110.047C243.227 110.484 243.164 110.945 243.164 111.43C243.164 111.898 243.273 112.32 243.492 112.695C243.727 113.055 244.039 113.336 244.43 113.539C244.82 113.742 245.258 113.844 245.742 113.844C246.617 113.844 247.359 113.68 247.969 113.352C248.594 113.008 249.07 112.594 249.398 112.109C249.727 111.625 249.891 111.172 249.891 110.75L251.625 113.984C251.312 114.609 250.953 115.242 250.547 115.883C250.156 116.523 249.664 117.117 249.07 117.664C248.492 118.195 247.781 118.633 246.938 118.977C246.094 119.305 245.07 119.469 243.867 119.469C242.305 119.469 240.867 119.148 239.555 118.508C238.258 117.867 237.219 116.977 236.438 115.836C235.656 114.68 235.266 113.352 235.266 111.852C235.266 110.539 235.5 109.367 235.969 108.336C236.453 107.305 237.18 106.43 238.148 105.711C239.117 104.992 240.352 104.445 241.852 104.07C243.352 103.695 245.117 103.508 247.148 103.508H250.547ZM270.258 83V119H262.336V83H270.258ZM283.477 93.6406V119H275.555V93.6406H283.477ZM275.086 87.1016C275.086 85.9766 275.492 85.0547 276.305 84.3359C277.117 83.6172 278.172 83.2578 279.469 83.2578C280.766 83.2578 281.82 83.6172 282.633 84.3359C283.445 85.0547 283.852 85.9766 283.852 87.1016C283.852 88.2266 283.445 89.1484 282.633 89.8672C281.82 90.5859 280.766 90.9453 279.469 90.9453C278.172 90.9453 277.117 90.5859 276.305 89.8672C275.492 89.1484 275.086 88.2266 275.086 87.1016ZM302.93 113.188V83H310.875V119H303.75L302.93 113.188ZM287.367 106.625V106.133C287.367 104.211 287.578 102.461 288 100.883C288.422 99.2891 289.047 97.9219 289.875 96.7812C290.703 95.625 291.734 94.7344 292.969 94.1094C294.203 93.4844 295.625 93.1719 297.234 93.1719C298.672 93.1719 299.93 93.5078 301.008 94.1797C302.086 94.8359 303.008 95.7578 303.773 96.9453C304.539 98.1328 305.164 99.5234 305.648 101.117C306.133 102.695 306.5 104.398 306.75 106.227V106.812C306.5 108.531 306.133 110.156 305.648 111.688C305.164 113.203 304.539 114.547 303.773 115.719C303.008 116.891 302.078 117.812 300.984 118.484C299.906 119.141 298.641 119.469 297.188 119.469C295.578 119.469 294.156 119.148 292.922 118.508C291.703 117.867 290.68 116.969 289.852 115.812C289.039 114.656 288.422 113.297 288 111.734C287.578 110.172 287.367 108.469 287.367 106.625ZM295.266 106.133V106.625C295.266 107.578 295.328 108.461 295.453 109.273C295.578 110.086 295.789 110.805 296.086 111.43C296.398 112.039 296.805 112.516 297.305 112.859C297.82 113.203 298.453 113.375 299.203 113.375C300.219 113.375 301.055 113.133 301.711 112.648C302.383 112.164 302.875 111.477 303.188 110.586C303.516 109.695 303.656 108.648 303.609 107.445V105.594C303.641 104.562 303.57 103.656 303.398 102.875C303.227 102.078 302.953 101.414 302.578 100.883C302.219 100.352 301.758 99.9531 301.195 99.6875C300.648 99.4062 300 99.2656 299.25 99.2656C298.516 99.2656 297.891 99.4375 297.375 99.7812C296.875 100.125 296.469 100.609 296.156 101.234C295.844 101.844 295.617 102.57 295.477 103.414C295.336 104.242 295.266 105.148 295.266 106.133ZM328.523 112.625V102.172C328.523 101.453 328.422 100.836 328.219 100.32C328.016 99.8047 327.695 99.4062 327.258 99.125C326.82 98.8281 326.234 98.6797 325.5 98.6797C324.906 98.6797 324.398 98.7812 323.977 98.9844C323.555 99.1875 323.234 99.4922 323.016 99.8984C322.797 100.305 322.688 100.82 322.688 101.445H314.789C314.789 100.273 315.047 99.1875 315.562 98.1875C316.094 97.1719 316.844 96.2891 317.812 95.5391C318.797 94.7891 319.969 94.2109 321.328 93.8047C322.703 93.3828 324.234 93.1719 325.922 93.1719C327.938 93.1719 329.734 93.5078 331.312 94.1797C332.906 94.8516 334.164 95.8594 335.086 97.2031C336.008 98.5312 336.469 100.203 336.469 102.219V112.602C336.469 114.258 336.562 115.516 336.75 116.375C336.938 117.219 337.203 117.961 337.547 118.602V119H329.625C329.25 118.219 328.969 117.266 328.781 116.141C328.609 115 328.523 113.828 328.523 112.625ZM329.484 103.508L329.531 107.727H326.039C325.305 107.727 324.68 107.828 324.164 108.031C323.664 108.234 323.258 108.516 322.945 108.875C322.648 109.219 322.43 109.609 322.289 110.047C322.164 110.484 322.102 110.945 322.102 111.43C322.102 111.898 322.211 112.32 322.43 112.695C322.664 113.055 322.977 113.336 323.367 113.539C323.758 113.742 324.195 113.844 324.68 113.844C325.555 113.844 326.297 113.68 326.906 113.352C327.531 113.008 328.008 112.594 328.336 112.109C328.664 111.625 328.828 111.172 328.828 110.75L330.562 113.984C330.25 114.609 329.891 115.242 329.484 115.883C329.094 116.523 328.602 117.117 328.008 117.664C327.43 118.195 326.719 118.633 325.875 118.977C325.031 119.305 324.008 119.469 322.805 119.469C321.242 119.469 319.805 119.148 318.492 118.508C317.195 117.867 316.156 116.977 315.375 115.836C314.594 114.68 314.203 113.352 314.203 111.852C314.203 110.539 314.438 109.367 314.906 108.336C315.391 107.305 316.117 106.43 317.086 105.711C318.055 104.992 319.289 104.445 320.789 104.07C322.289 103.695 324.055 103.508 326.086 103.508H329.484ZM354.211 93.6406V99.125H338.93V93.6406H354.211ZM342.141 87.3359H350.039V110.727C350.039 111.398 350.117 111.922 350.273 112.297C350.43 112.656 350.695 112.914 351.07 113.07C351.461 113.211 351.977 113.281 352.617 113.281C353.07 113.281 353.445 113.273 353.742 113.258C354.039 113.227 354.32 113.188 354.586 113.141V118.789C353.914 119.008 353.211 119.172 352.477 119.281C351.742 119.406 350.961 119.469 350.133 119.469C348.445 119.469 347 119.203 345.797 118.672C344.609 118.141 343.703 117.305 343.078 116.164C342.453 115.023 342.141 113.539 342.141 111.711V87.3359ZM365.695 93.6406V119H357.773V93.6406H365.695ZM357.305 87.1016C357.305 85.9766 357.711 85.0547 358.523 84.3359C359.336 83.6172 360.391 83.2578 361.688 83.2578C362.984 83.2578 364.039 83.6172 364.852 84.3359C365.664 85.0547 366.07 85.9766 366.07 87.1016C366.07 88.2266 365.664 89.1484 364.852 89.8672C364.039 90.5859 362.984 90.9453 361.688 90.9453C360.391 90.9453 359.336 90.5859 358.523 89.8672C357.711 89.1484 357.305 88.2266 357.305 87.1016ZM369.586 106.578V106.086C369.586 104.227 369.852 102.516 370.383 100.953C370.914 99.375 371.695 98.0078 372.727 96.8516C373.758 95.6953 375.031 94.7969 376.547 94.1562C378.062 93.5 379.812 93.1719 381.797 93.1719C383.797 93.1719 385.555 93.5 387.07 94.1562C388.602 94.7969 389.883 95.6953 390.914 96.8516C391.945 98.0078 392.727 99.375 393.258 100.953C393.789 102.516 394.055 104.227 394.055 106.086V106.578C394.055 108.422 393.789 110.133 393.258 111.711C392.727 113.273 391.945 114.641 390.914 115.812C389.883 116.969 388.609 117.867 387.094 118.508C385.578 119.148 383.828 119.469 381.844 119.469C379.859 119.469 378.102 119.148 376.57 118.508C375.039 117.867 373.758 116.969 372.727 115.812C371.695 114.641 370.914 113.273 370.383 111.711C369.852 110.133 369.586 108.422 369.586 106.578ZM377.484 106.086V106.578C377.484 107.531 377.555 108.422 377.695 109.25C377.836 110.078 378.07 110.805 378.398 111.43C378.727 112.039 379.172 112.516 379.734 112.859C380.297 113.203 381 113.375 381.844 113.375C382.672 113.375 383.359 113.203 383.906 112.859C384.469 112.516 384.914 112.039 385.242 111.43C385.57 110.805 385.805 110.078 385.945 109.25C386.086 108.422 386.156 107.531 386.156 106.578V106.086C386.156 105.164 386.086 104.297 385.945 103.484C385.805 102.656 385.57 101.93 385.242 101.305C384.914 100.664 384.469 100.164 383.906 99.8047C383.344 99.4453 382.641 99.2656 381.797 99.2656C380.969 99.2656 380.273 99.4453 379.711 99.8047C379.164 100.164 378.727 100.664 378.398 101.305C378.07 101.93 377.836 102.656 377.695 103.484C377.555 104.297 377.484 105.164 377.484 106.086ZM405.328 99.0547V119H397.43V93.6406H404.836L405.328 99.0547ZM404.391 105.453L402.539 105.5C402.539 103.562 402.773 101.836 403.242 100.32C403.711 98.7891 404.375 97.4922 405.234 96.4297C406.094 95.3672 407.117 94.5625 408.305 94.0156C409.508 93.4531 410.844 93.1719 412.312 93.1719C413.484 93.1719 414.555 93.3438 415.523 93.6875C416.508 94.0312 417.352 94.5859 418.055 95.3516C418.773 96.1172 419.32 97.1328 419.695 98.3984C420.086 99.6484 420.281 101.195 420.281 103.039V119H412.336V103.016C412.336 102 412.195 101.227 411.914 100.695C411.633 100.148 411.227 99.7734 410.695 99.5703C410.164 99.3672 409.516 99.2656 408.75 99.2656C407.938 99.2656 407.25 99.4219 406.688 99.7344C406.125 100.047 405.672 100.484 405.328 101.047C405 101.594 404.758 102.242 404.602 102.992C404.461 103.742 404.391 104.562 404.391 105.453Z" fill="black"/>
<path d="M1134 0H1348C1356.28 0 1363 6.71573 1363 15V148C1363 156.284 1356.28 163 1348 163H1134V0Z" fill="#FEDFD4"/>
<path d="M1210.62 43.625H1286.38V119.375H1210.62V43.625Z" fill="white" fill-opacity="0.01"/>
<path d="M1276.91 72.0312V105.172C1276.91 107.787 1274.79 109.906 1272.17 109.906H1224.83C1222.21 109.906 1220.09 107.787 1220.09 105.172V57.8281C1220.09 55.2134 1222.21 53.0938 1224.83 53.0938H1261.12" stroke="white" stroke-width="7.24" stroke-linecap="round" stroke-linejoin="round"/>
<path d="M1232.72 75.1875L1248.5 87.8125L1276.91 53.0938" stroke="white" stroke-width="7.24" stroke-linecap="round" stroke-linejoin="round"/>
</svg>
