<svg width="1363" height="163" viewBox="0 0 1363 163" fill="none" xmlns="http://www.w3.org/2000/svg">
<path d="M0 15C0 6.71573 6.71573 0 15 0H37V163H15C6.71573 163 0 156.284 0 148V15Z" fill="#424242"/>
<rect width="1097" height="163" transform="translate(37)" fill="#F0F0F0"/>
<path d="M101.906 53.9219L94.3945 51.2383V48.0859L104.602 52.375V54.6367L101.906 53.9219ZM94.3945 56.1719L101.918 53.4297L104.602 52.7852V55.0352L94.3945 59.3242V56.1719ZM119.578 53.5117H115.195L115.172 51.0977H118.852C119.5 51.0977 120.031 51.0156 120.445 50.8516C120.859 50.6797 121.168 50.4336 121.371 50.1133C121.582 49.7852 121.688 49.3867 121.688 48.918C121.688 48.3867 121.586 47.957 121.383 47.6289C121.188 47.3008 120.879 47.0625 120.457 46.9141C120.043 46.7656 119.508 46.6914 118.852 46.6914H116.414V61H112.898V43.9375H118.852C119.844 43.9375 120.73 44.0312 121.512 44.2188C122.301 44.4062 122.969 44.6914 123.516 45.0742C124.062 45.457 124.48 45.9414 124.77 46.5273C125.059 47.1055 125.203 47.793 125.203 48.5898C125.203 49.293 125.043 49.9414 124.723 50.5352C124.41 51.1289 123.914 51.6133 123.234 51.9883C122.562 52.3633 121.684 52.5703 120.598 52.6094L119.578 53.5117ZM119.426 61H114.234L115.605 58.2578H119.426C120.043 58.2578 120.547 58.1602 120.938 57.9648C121.328 57.7617 121.617 57.4883 121.805 57.1445C121.992 56.8008 122.086 56.4062 122.086 55.9609C122.086 55.4609 122 55.0273 121.828 54.6602C121.664 54.293 121.398 54.0117 121.031 53.8164C120.664 53.6133 120.18 53.5117 119.578 53.5117H116.191L116.215 51.0977H120.434L121.242 52.0469C122.281 52.0312 123.117 52.2148 123.75 52.5977C124.391 52.9727 124.855 53.4609 125.145 54.0625C125.441 54.6641 125.59 55.3086 125.59 55.9961C125.59 57.0898 125.352 58.0117 124.875 58.7617C124.398 59.5039 123.699 60.0625 122.777 60.4375C121.863 60.8125 120.746 61 119.426 61ZM131.391 51.0859V61H128.016V48.3203H131.191L131.391 51.0859ZM135.211 48.2383L135.152 51.3672C134.988 51.3438 134.789 51.3242 134.555 51.3086C134.328 51.2852 134.121 51.2734 133.934 51.2734C133.457 51.2734 133.043 51.3359 132.691 51.4609C132.348 51.5781 132.059 51.7539 131.824 51.9883C131.598 52.2227 131.426 52.5078 131.309 52.8438C131.199 53.1797 131.137 53.5625 131.121 53.9922L130.441 53.7812C130.441 52.9609 130.523 52.207 130.688 51.5195C130.852 50.8242 131.09 50.2188 131.402 49.7031C131.723 49.1875 132.113 48.7891 132.574 48.5078C133.035 48.2266 133.562 48.0859 134.156 48.0859C134.344 48.0859 134.535 48.1016 134.73 48.1328C134.926 48.1562 135.086 48.1914 135.211 48.2383ZM142.406 61.2344C141.422 61.2344 140.539 61.0781 139.758 60.7656C138.977 60.4453 138.312 60.0039 137.766 59.4414C137.227 58.8789 136.812 58.2266 136.523 57.4844C136.234 56.7344 136.09 55.9375 136.09 55.0938V54.625C136.09 53.6641 136.227 52.7852 136.5 51.9883C136.773 51.1914 137.164 50.5 137.672 49.9141C138.188 49.3281 138.812 48.8789 139.547 48.5664C140.281 48.2461 141.109 48.0859 142.031 48.0859C142.93 48.0859 143.727 48.2344 144.422 48.5312C145.117 48.8281 145.699 49.25 146.168 49.7969C146.645 50.3438 147.004 51 147.246 51.7656C147.488 52.5234 147.609 53.3672 147.609 54.2969V55.7031H137.531V53.4531H144.293V53.1953C144.293 52.7266 144.207 52.3086 144.035 51.9414C143.871 51.5664 143.621 51.2695 143.285 51.0508C142.949 50.832 142.52 50.7227 141.996 50.7227C141.551 50.7227 141.168 50.8203 140.848 51.0156C140.527 51.2109 140.266 51.4844 140.062 51.8359C139.867 52.1875 139.719 52.6016 139.617 53.0781C139.523 53.5469 139.477 54.0625 139.477 54.625V55.0938C139.477 55.6016 139.547 56.0703 139.688 56.5C139.836 56.9297 140.043 57.3008 140.309 57.6133C140.582 57.9258 140.91 58.168 141.293 58.3398C141.684 58.5117 142.125 58.5977 142.617 58.5977C143.227 58.5977 143.793 58.4805 144.316 58.2461C144.848 58.0039 145.305 57.6406 145.688 57.1562L147.328 58.9375C147.062 59.3203 146.699 59.6875 146.238 60.0391C145.785 60.3906 145.238 60.6797 144.598 60.9062C143.957 61.125 143.227 61.2344 142.406 61.2344ZM156.375 58.1406V52.4922C156.375 52.0859 156.309 51.7383 156.176 51.4492C156.043 51.1523 155.836 50.9219 155.555 50.7578C155.281 50.5938 154.926 50.5117 154.488 50.5117C154.113 50.5117 153.789 50.5781 153.516 50.7109C153.242 50.8359 153.031 51.0195 152.883 51.2617C152.734 51.4961 152.66 51.7734 152.66 52.0938H149.285C149.285 51.5547 149.41 51.043 149.66 50.5586C149.91 50.0742 150.273 49.6484 150.75 49.2812C151.227 48.9062 151.793 48.6133 152.449 48.4023C153.113 48.1914 153.855 48.0859 154.676 48.0859C155.66 48.0859 156.535 48.25 157.301 48.5781C158.066 48.9062 158.668 49.3984 159.105 50.0547C159.551 50.7109 159.773 51.5312 159.773 52.5156V57.9414C159.773 58.6367 159.816 59.207 159.902 59.6523C159.988 60.0898 160.113 60.4727 160.277 60.8008V61H156.867C156.703 60.6562 156.578 60.2266 156.492 59.7109C156.414 59.1875 156.375 58.6641 156.375 58.1406ZM156.82 53.2773L156.844 55.1875H154.957C154.512 55.1875 154.125 55.2383 153.797 55.3398C153.469 55.4414 153.199 55.5859 152.988 55.7734C152.777 55.9531 152.621 56.1641 152.52 56.4062C152.426 56.6484 152.379 56.9141 152.379 57.2031C152.379 57.4922 152.445 57.7539 152.578 57.9883C152.711 58.2148 152.902 58.3945 153.152 58.5273C153.402 58.6523 153.695 58.7148 154.031 58.7148C154.539 58.7148 154.98 58.6133 155.355 58.4102C155.73 58.207 156.02 57.957 156.223 57.6602C156.434 57.3633 156.543 57.082 156.551 56.8164L157.441 58.2461C157.316 58.5664 157.145 58.8984 156.926 59.2422C156.715 59.5859 156.445 59.9102 156.117 60.2148C155.789 60.5117 155.395 60.7578 154.934 60.9531C154.473 61.1406 153.926 61.2344 153.293 61.2344C152.488 61.2344 151.758 61.0742 151.102 60.7539C150.453 60.4258 149.938 59.9766 149.555 59.4062C149.18 58.8281 148.992 58.1719 148.992 57.4375C148.992 56.7734 149.117 56.1836 149.367 55.668C149.617 55.1523 149.984 54.7188 150.469 54.3672C150.961 54.0078 151.574 53.7383 152.309 53.5586C153.043 53.3711 153.895 53.2773 154.863 53.2773H156.82ZM168.586 48.3203V50.7109H161.203V48.3203H168.586ZM163.031 45.1914H166.406V57.1797C166.406 57.5469 166.453 57.8281 166.547 58.0234C166.648 58.2188 166.797 58.3555 166.992 58.4336C167.188 58.5039 167.434 58.5391 167.73 58.5391C167.941 58.5391 168.129 58.5312 168.293 58.5156C168.465 58.4922 168.609 58.4688 168.727 58.4453L168.738 60.9297C168.449 61.0234 168.137 61.0977 167.801 61.1523C167.465 61.207 167.094 61.2344 166.688 61.2344C165.945 61.2344 165.297 61.1133 164.742 60.8711C164.195 60.6211 163.773 60.2227 163.477 59.6758C163.18 59.1289 163.031 58.4102 163.031 57.5195V45.1914ZM173.801 43V61H170.426V43H173.801ZM173.32 54.2148H172.395C172.402 53.332 172.52 52.5195 172.746 51.7773C172.973 51.0273 173.297 50.3789 173.719 49.832C174.141 49.2773 174.645 48.8477 175.23 48.543C175.824 48.2383 176.48 48.0859 177.199 48.0859C177.824 48.0859 178.391 48.1758 178.898 48.3555C179.414 48.5273 179.855 48.8086 180.223 49.1992C180.598 49.582 180.887 50.0859 181.09 50.7109C181.293 51.3359 181.395 52.0938 181.395 52.9844V61H177.996V52.9609C177.996 52.3984 177.914 51.957 177.75 51.6367C177.594 51.3086 177.363 51.0781 177.059 50.9453C176.762 50.8047 176.395 50.7344 175.957 50.7344C175.473 50.7344 175.059 50.8242 174.715 51.0039C174.379 51.1836 174.109 51.4336 173.906 51.7539C173.703 52.0664 173.555 52.4336 173.461 52.8555C173.367 53.2773 173.32 53.7305 173.32 54.2148ZM189.797 61.2344C188.812 61.2344 187.93 61.0781 187.148 60.7656C186.367 60.4453 185.703 60.0039 185.156 59.4414C184.617 58.8789 184.203 58.2266 183.914 57.4844C183.625 56.7344 183.48 55.9375 183.48 55.0938V54.625C183.48 53.6641 183.617 52.7852 183.891 51.9883C184.164 51.1914 184.555 50.5 185.062 49.9141C185.578 49.3281 186.203 48.8789 186.938 48.5664C187.672 48.2461 188.5 48.0859 189.422 48.0859C190.32 48.0859 191.117 48.2344 191.812 48.5312C192.508 48.8281 193.09 49.25 193.559 49.7969C194.035 50.3438 194.395 51 194.637 51.7656C194.879 52.5234 195 53.3672 195 54.2969V55.7031H184.922V53.4531H191.684V53.1953C191.684 52.7266 191.598 52.3086 191.426 51.9414C191.262 51.5664 191.012 51.2695 190.676 51.0508C190.34 50.832 189.91 50.7227 189.387 50.7227C188.941 50.7227 188.559 50.8203 188.238 51.0156C187.918 51.2109 187.656 51.4844 187.453 51.8359C187.258 52.1875 187.109 52.6016 187.008 53.0781C186.914 53.5469 186.867 54.0625 186.867 54.625V55.0938C186.867 55.6016 186.938 56.0703 187.078 56.5C187.227 56.9297 187.434 57.3008 187.699 57.6133C187.973 57.9258 188.301 58.168 188.684 58.3398C189.074 58.5117 189.516 58.5977 190.008 58.5977C190.617 58.5977 191.184 58.4805 191.707 58.2461C192.238 58.0039 192.695 57.6406 193.078 57.1562L194.719 58.9375C194.453 59.3203 194.09 59.6875 193.629 60.0391C193.176 60.3906 192.629 60.6797 191.988 60.9062C191.348 61.125 190.617 61.2344 189.797 61.2344ZM201.246 58.293L204.645 43.9375H206.543L206.977 46.3281L203.355 61H201.316L201.246 58.293ZM199.5 43.9375L202.312 58.293L202.078 61H199.805L196.02 43.9375H199.5ZM209.965 58.2344L212.742 43.9375H216.223L212.449 61H210.176L209.965 58.2344ZM207.609 43.9375L211.031 58.3516L210.938 61H208.898L205.254 46.3164L205.723 43.9375H207.609ZM221.484 48.3203V61H218.098V48.3203H221.484ZM217.887 45.0156C217.887 44.5234 218.059 44.1172 218.402 43.7969C218.746 43.4766 219.207 43.3164 219.785 43.3164C220.355 43.3164 220.812 43.4766 221.156 43.7969C221.508 44.1172 221.684 44.5234 221.684 45.0156C221.684 45.5078 221.508 45.9141 221.156 46.2344C220.812 46.5547 220.355 46.7148 219.785 46.7148C219.207 46.7148 218.746 46.5547 218.402 46.2344C218.059 45.9141 217.887 45.5078 217.887 45.0156ZM231.129 57.4961C231.129 57.2539 231.059 57.0352 230.918 56.8398C230.777 56.6445 230.516 56.4648 230.133 56.3008C229.758 56.1289 229.215 55.9727 228.504 55.832C227.863 55.6914 227.266 55.5156 226.711 55.3047C226.164 55.0859 225.688 54.8242 225.281 54.5195C224.883 54.2148 224.57 53.8555 224.344 53.4414C224.117 53.0195 224.004 52.5391 224.004 52C224.004 51.4688 224.117 50.9688 224.344 50.5C224.578 50.0312 224.91 49.6172 225.34 49.2578C225.777 48.8906 226.309 48.6055 226.934 48.4023C227.566 48.1914 228.277 48.0859 229.066 48.0859C230.168 48.0859 231.113 48.2617 231.902 48.6133C232.699 48.9648 233.309 49.4492 233.73 50.0664C234.16 50.6758 234.375 51.3711 234.375 52.1523H231C231 51.8242 230.93 51.5312 230.789 51.2734C230.656 51.0078 230.445 50.8008 230.156 50.6523C229.875 50.4961 229.508 50.418 229.055 50.418C228.68 50.418 228.355 50.4844 228.082 50.6172C227.809 50.7422 227.598 50.9141 227.449 51.1328C227.309 51.3438 227.238 51.5781 227.238 51.8359C227.238 52.0312 227.277 52.207 227.355 52.3633C227.441 52.5117 227.578 52.6484 227.766 52.7734C227.953 52.8984 228.195 53.0156 228.492 53.125C228.797 53.2266 229.172 53.3203 229.617 53.4062C230.531 53.5938 231.348 53.8398 232.066 54.1445C232.785 54.4414 233.355 54.8477 233.777 55.3633C234.199 55.8711 234.41 56.5391 234.41 57.3672C234.41 57.9297 234.285 58.4453 234.035 58.9141C233.785 59.3828 233.426 59.793 232.957 60.1445C232.488 60.4883 231.926 60.7578 231.27 60.9531C230.621 61.1406 229.891 61.2344 229.078 61.2344C227.898 61.2344 226.898 61.0234 226.078 60.6016C225.266 60.1797 224.648 59.6445 224.227 58.9961C223.812 58.3398 223.605 57.668 223.605 56.9805H226.805C226.82 57.4414 226.938 57.8125 227.156 58.0938C227.383 58.375 227.668 58.5781 228.012 58.7031C228.363 58.8281 228.742 58.8906 229.148 58.8906C229.586 58.8906 229.949 58.832 230.238 58.7148C230.527 58.5898 230.746 58.4258 230.895 58.2227C231.051 58.0117 231.129 57.7695 231.129 57.4961ZM242.438 61.2344C241.453 61.2344 240.57 61.0781 239.789 60.7656C239.008 60.4453 238.344 60.0039 237.797 59.4414C237.258 58.8789 236.844 58.2266 236.555 57.4844C236.266 56.7344 236.121 55.9375 236.121 55.0938V54.625C236.121 53.6641 236.258 52.7852 236.531 51.9883C236.805 51.1914 237.195 50.5 237.703 49.9141C238.219 49.3281 238.844 48.8789 239.578 48.5664C240.312 48.2461 241.141 48.0859 242.062 48.0859C242.961 48.0859 243.758 48.2344 244.453 48.5312C245.148 48.8281 245.73 49.25 246.199 49.7969C246.676 50.3438 247.035 51 247.277 51.7656C247.52 52.5234 247.641 53.3672 247.641 54.2969V55.7031H237.562V53.4531H244.324V53.1953C244.324 52.7266 244.238 52.3086 244.066 51.9414C243.902 51.5664 243.652 51.2695 243.316 51.0508C242.98 50.832 242.551 50.7227 242.027 50.7227C241.582 50.7227 241.199 50.8203 240.879 51.0156C240.559 51.2109 240.297 51.4844 240.094 51.8359C239.898 52.1875 239.75 52.6016 239.648 53.0781C239.555 53.5469 239.508 54.0625 239.508 54.625V55.0938C239.508 55.6016 239.578 56.0703 239.719 56.5C239.867 56.9297 240.074 57.3008 240.34 57.6133C240.613 57.9258 240.941 58.168 241.324 58.3398C241.715 58.5117 242.156 58.5977 242.648 58.5977C243.258 58.5977 243.824 58.4805 244.348 58.2461C244.879 58.0039 245.336 57.6406 245.719 57.1562L247.359 58.9375C247.094 59.3203 246.73 59.6875 246.27 60.0391C245.816 60.3906 245.27 60.6797 244.629 60.9062C243.988 61.125 243.258 61.2344 242.438 61.2344Z" fill="#888888"/>
<path d="M112.125 84.875V119H103.898V84.875H112.125ZM122.391 84.875V91.2266H93.8672V84.875H122.391ZM133.852 93.6406V119H125.93V93.6406H133.852ZM125.461 87.1016C125.461 85.9766 125.867 85.0547 126.68 84.3359C127.492 83.6172 128.547 83.2578 129.844 83.2578C131.141 83.2578 132.195 83.6172 133.008 84.3359C133.82 85.0547 134.227 85.9766 134.227 87.1016C134.227 88.2266 133.82 89.1484 133.008 89.8672C132.195 90.5859 131.141 90.9453 129.844 90.9453C128.547 90.9453 127.492 90.5859 126.68 89.8672C125.867 89.1484 125.461 88.2266 125.461 87.1016ZM146.695 99.0078V119H138.797V93.6406H146.203L146.695 99.0078ZM145.734 105.453L143.93 105.5C143.93 103.719 144.141 102.078 144.562 100.578C144.984 99.0781 145.609 97.7734 146.438 96.6641C147.266 95.5547 148.281 94.6953 149.484 94.0859C150.703 93.4766 152.109 93.1719 153.703 93.1719C154.812 93.1719 155.82 93.3438 156.727 93.6875C157.633 94.0156 158.414 94.5391 159.07 95.2578C159.727 95.9609 160.227 96.8828 160.57 98.0234C160.93 99.1484 161.109 100.5 161.109 102.078V119H153.211V103.086C153.211 102.008 153.086 101.195 152.836 100.648C152.602 100.102 152.258 99.7344 151.805 99.5469C151.352 99.3594 150.797 99.2656 150.141 99.2656C149.453 99.2656 148.836 99.4219 148.289 99.7344C147.742 100.047 147.273 100.484 146.883 101.047C146.508 101.594 146.219 102.242 146.016 102.992C145.828 103.742 145.734 104.562 145.734 105.453ZM160.219 105.453L158.016 105.5C158.016 103.719 158.211 102.078 158.602 100.578C159.008 99.0781 159.609 97.7734 160.406 96.6641C161.219 95.5547 162.227 94.6953 163.43 94.0859C164.633 93.4766 166.031 93.1719 167.625 93.1719C168.781 93.1719 169.844 93.3438 170.812 93.6875C171.781 94.0312 172.617 94.5859 173.32 95.3516C174.023 96.1172 174.57 97.1328 174.961 98.3984C175.352 99.6484 175.547 101.195 175.547 103.039V119H167.625V103.039C167.625 101.992 167.5 101.203 167.25 100.672C167.016 100.125 166.672 99.7578 166.219 99.5703C165.766 99.3672 165.227 99.2656 164.602 99.2656C163.852 99.2656 163.203 99.4219 162.656 99.7344C162.109 100.047 161.648 100.484 161.273 101.047C160.914 101.594 160.648 102.242 160.477 102.992C160.305 103.742 160.219 104.562 160.219 105.453ZM192.352 119.469C190.289 119.469 188.445 119.148 186.82 118.508C185.195 117.852 183.82 116.953 182.695 115.812C181.586 114.672 180.734 113.359 180.141 111.875C179.562 110.391 179.273 108.82 179.273 107.164V106.273C179.273 104.414 179.531 102.695 180.047 101.117C180.562 99.5234 181.328 98.1328 182.344 96.9453C183.359 95.7578 184.633 94.8359 186.164 94.1797C187.695 93.5078 189.477 93.1719 191.508 93.1719C193.305 93.1719 194.914 93.4609 196.336 94.0391C197.758 94.6172 198.961 95.4453 199.945 96.5234C200.945 97.6016 201.703 98.9062 202.219 100.438C202.75 101.969 203.016 103.688 203.016 105.594V108.805H182.297V103.859H195.305V103.25C195.32 102.406 195.172 101.688 194.859 101.094C194.562 100.5 194.125 100.047 193.547 99.7344C192.969 99.4219 192.266 99.2656 191.438 99.2656C190.578 99.2656 189.867 99.4531 189.305 99.8281C188.758 100.203 188.328 100.719 188.016 101.375C187.719 102.016 187.508 102.758 187.383 103.602C187.258 104.445 187.195 105.336 187.195 106.273V107.164C187.195 108.102 187.32 108.953 187.57 109.719C187.836 110.484 188.211 111.141 188.695 111.688C189.195 112.219 189.789 112.633 190.477 112.93C191.18 113.227 191.977 113.375 192.867 113.375C193.945 113.375 195.008 113.172 196.055 112.766C197.102 112.359 198 111.688 198.75 110.75L202.336 115.016C201.82 115.75 201.086 116.461 200.133 117.148C199.195 117.836 198.07 118.398 196.758 118.836C195.445 119.258 193.977 119.469 192.352 119.469ZM236.133 109.93C236.133 109.398 236.055 108.922 235.898 108.5C235.742 108.062 235.453 107.656 235.031 107.281C234.609 106.906 234 106.531 233.203 106.156C232.422 105.766 231.391 105.359 230.109 104.938C228.609 104.438 227.164 103.875 225.773 103.25C224.383 102.609 223.141 101.867 222.047 101.023C220.953 100.164 220.086 99.1641 219.445 98.0234C218.805 96.8672 218.484 95.5234 218.484 93.9922C218.484 92.5234 218.812 91.2031 219.469 90.0312C220.125 88.8438 221.039 87.8359 222.211 87.0078C223.398 86.1641 224.789 85.5234 226.383 85.0859C227.977 84.6328 229.719 84.4062 231.609 84.4062C234.109 84.4062 236.312 84.8438 238.219 85.7188C240.141 86.5781 241.641 87.8047 242.719 89.3984C243.812 90.9766 244.359 92.8438 244.359 95H236.18C236.18 94.1406 236 93.3828 235.641 92.7266C235.297 92.0703 234.773 91.5547 234.07 91.1797C233.367 90.8047 232.484 90.6172 231.422 90.6172C230.391 90.6172 229.523 90.7734 228.82 91.0859C228.117 91.3984 227.586 91.8203 227.227 92.3516C226.867 92.8672 226.688 93.4375 226.688 94.0625C226.688 94.5781 226.828 95.0469 227.109 95.4688C227.406 95.875 227.82 96.2578 228.352 96.6172C228.898 96.9766 229.555 97.3203 230.32 97.6484C231.102 97.9766 231.977 98.2969 232.945 98.6094C234.758 99.1875 236.367 99.8359 237.773 100.555C239.195 101.258 240.391 102.062 241.359 102.969C242.344 103.859 243.086 104.875 243.586 106.016C244.102 107.156 244.359 108.445 244.359 109.883C244.359 111.414 244.062 112.773 243.469 113.961C242.875 115.148 242.023 116.156 240.914 116.984C239.805 117.797 238.477 118.414 236.93 118.836C235.383 119.258 233.656 119.469 231.75 119.469C230 119.469 228.273 119.25 226.57 118.812C224.883 118.359 223.352 117.672 221.977 116.75C220.602 115.812 219.5 114.617 218.672 113.164C217.859 111.695 217.453 109.953 217.453 107.938H225.703C225.703 108.938 225.836 109.781 226.102 110.469C226.367 111.156 226.758 111.711 227.273 112.133C227.789 112.539 228.422 112.836 229.172 113.023C229.922 113.195 230.781 113.281 231.75 113.281C232.797 113.281 233.641 113.133 234.281 112.836C234.922 112.523 235.391 112.117 235.688 111.617C235.984 111.102 236.133 110.539 236.133 109.93ZM260.508 119.469C258.445 119.469 256.602 119.148 254.977 118.508C253.352 117.852 251.977 116.953 250.852 115.812C249.742 114.672 248.891 113.359 248.297 111.875C247.719 110.391 247.43 108.82 247.43 107.164V106.273C247.43 104.414 247.688 102.695 248.203 101.117C248.719 99.5234 249.484 98.1328 250.5 96.9453C251.516 95.7578 252.789 94.8359 254.32 94.1797C255.852 93.5078 257.633 93.1719 259.664 93.1719C261.461 93.1719 263.07 93.4609 264.492 94.0391C265.914 94.6172 267.117 95.4453 268.102 96.5234C269.102 97.6016 269.859 98.9062 270.375 100.438C270.906 101.969 271.172 103.688 271.172 105.594V108.805H250.453V103.859H263.461V103.25C263.477 102.406 263.328 101.688 263.016 101.094C262.719 100.5 262.281 100.047 261.703 99.7344C261.125 99.4219 260.422 99.2656 259.594 99.2656C258.734 99.2656 258.023 99.4531 257.461 99.8281C256.914 100.203 256.484 100.719 256.172 101.375C255.875 102.016 255.664 102.758 255.539 103.602C255.414 104.445 255.352 105.336 255.352 106.273V107.164C255.352 108.102 255.477 108.953 255.727 109.719C255.992 110.484 256.367 111.141 256.852 111.688C257.352 112.219 257.945 112.633 258.633 112.93C259.336 113.227 260.133 113.375 261.023 113.375C262.102 113.375 263.164 113.172 264.211 112.766C265.258 112.359 266.156 111.688 266.906 110.75L270.492 115.016C269.977 115.75 269.242 116.461 268.289 117.148C267.352 117.836 266.227 118.398 264.914 118.836C263.602 119.258 262.133 119.469 260.508 119.469ZM282.352 99.9219V119H274.453V93.6406H281.836L282.352 99.9219ZM289.852 93.4531L289.711 100.789C289.398 100.758 288.977 100.719 288.445 100.672C287.914 100.625 287.469 100.602 287.109 100.602C286.188 100.602 285.391 100.711 284.719 100.93C284.062 101.133 283.516 101.445 283.078 101.867C282.656 102.273 282.344 102.789 282.141 103.414C281.953 104.039 281.867 104.766 281.883 105.594L280.453 104.656C280.453 102.953 280.617 101.406 280.945 100.016C281.289 98.6094 281.773 97.3984 282.398 96.3828C283.023 95.3516 283.781 94.5625 284.672 94.0156C285.562 93.4531 286.562 93.1719 287.672 93.1719C288.062 93.1719 288.445 93.1953 288.82 93.2422C289.211 93.2891 289.555 93.3594 289.852 93.4531ZM300.914 93.6406V119H292.992V93.6406H300.914ZM292.523 87.1016C292.523 85.9766 292.93 85.0547 293.742 84.3359C294.555 83.6172 295.609 83.2578 296.906 83.2578C298.203 83.2578 299.258 83.6172 300.07 84.3359C300.883 85.0547 301.289 85.9766 301.289 87.1016C301.289 88.2266 300.883 89.1484 300.07 89.8672C299.258 90.5859 298.203 90.9453 296.906 90.9453C295.609 90.9453 294.555 90.5859 293.742 89.8672C292.93 89.1484 292.523 88.2266 292.523 87.1016ZM318.07 119.469C316.008 119.469 314.164 119.148 312.539 118.508C310.914 117.852 309.539 116.953 308.414 115.812C307.305 114.672 306.453 113.359 305.859 111.875C305.281 110.391 304.992 108.82 304.992 107.164V106.273C304.992 104.414 305.25 102.695 305.766 101.117C306.281 99.5234 307.047 98.1328 308.062 96.9453C309.078 95.7578 310.352 94.8359 311.883 94.1797C313.414 93.5078 315.195 93.1719 317.227 93.1719C319.023 93.1719 320.633 93.4609 322.055 94.0391C323.477 94.6172 324.68 95.4453 325.664 96.5234C326.664 97.6016 327.422 98.9062 327.938 100.438C328.469 101.969 328.734 103.688 328.734 105.594V108.805H308.016V103.859H321.023V103.25C321.039 102.406 320.891 101.688 320.578 101.094C320.281 100.5 319.844 100.047 319.266 99.7344C318.688 99.4219 317.984 99.2656 317.156 99.2656C316.297 99.2656 315.586 99.4531 315.023 99.8281C314.477 100.203 314.047 100.719 313.734 101.375C313.438 102.016 313.227 102.758 313.102 103.602C312.977 104.445 312.914 105.336 312.914 106.273V107.164C312.914 108.102 313.039 108.953 313.289 109.719C313.555 110.484 313.93 111.141 314.414 111.688C314.914 112.219 315.508 112.633 316.195 112.93C316.898 113.227 317.695 113.375 318.586 113.375C319.664 113.375 320.727 113.172 321.773 112.766C322.82 112.359 323.719 111.688 324.469 110.75L328.055 115.016C327.539 115.75 326.805 116.461 325.852 117.148C324.914 117.836 323.789 118.398 322.477 118.836C321.164 119.258 319.695 119.469 318.07 119.469ZM345.234 111.875C345.234 111.438 345.086 111.062 344.789 110.75C344.508 110.422 344.008 110.125 343.289 109.859C342.57 109.578 341.562 109.297 340.266 109.016C339.031 108.75 337.867 108.398 336.773 107.961C335.695 107.523 334.75 106.992 333.938 106.367C333.125 105.742 332.484 105 332.016 104.141C331.562 103.281 331.336 102.297 331.336 101.188C331.336 100.109 331.562 99.0938 332.016 98.1406C332.484 97.1719 333.164 96.3203 334.055 95.5859C334.961 94.8359 336.062 94.25 337.359 93.8281C338.656 93.3906 340.133 93.1719 341.789 93.1719C344.07 93.1719 346.039 93.5234 347.695 94.2266C349.352 94.9141 350.625 95.8828 351.516 97.1328C352.422 98.3672 352.875 99.7969 352.875 101.422H344.977C344.977 100.781 344.867 100.234 344.648 99.7812C344.445 99.3281 344.109 98.9844 343.641 98.75C343.172 98.5 342.547 98.375 341.766 98.375C341.219 98.375 340.719 98.4766 340.266 98.6797C339.828 98.8828 339.477 99.1641 339.211 99.5234C338.945 99.8828 338.812 100.305 338.812 100.789C338.812 101.133 338.891 101.445 339.047 101.727C339.219 101.992 339.477 102.242 339.82 102.477C340.164 102.695 340.602 102.898 341.133 103.086C341.664 103.258 342.305 103.414 343.055 103.555C344.758 103.867 346.352 104.312 347.836 104.891C349.32 105.469 350.523 106.289 351.445 107.352C352.383 108.414 352.852 109.844 352.852 111.641C352.852 112.766 352.594 113.805 352.078 114.758C351.562 115.695 350.82 116.523 349.852 117.242C348.883 117.945 347.719 118.492 346.359 118.883C345 119.273 343.469 119.469 341.766 119.469C339.344 119.469 337.297 119.039 335.625 118.18C333.953 117.305 332.688 116.211 331.828 114.898C330.984 113.57 330.562 112.227 330.562 110.867H337.922C337.953 111.648 338.141 112.289 338.484 112.789C338.844 113.289 339.32 113.656 339.914 113.891C340.508 114.125 341.195 114.242 341.977 114.242C342.695 114.242 343.289 114.141 343.758 113.938C344.242 113.734 344.609 113.461 344.859 113.117C345.109 112.758 345.234 112.344 345.234 111.875ZM383.344 92.0469L375.023 119H366.188L378.727 84.875H384.328L383.344 92.0469ZM390.234 119L381.891 92.0469L380.812 84.875H386.484L399.094 119H390.234ZM389.906 106.273V112.625H372.398V106.273H389.906ZM407.859 99.0547V119H399.961V93.6406H407.367L407.859 99.0547ZM406.922 105.453L405.07 105.5C405.07 103.562 405.305 101.836 405.773 100.32C406.242 98.7891 406.906 97.4922 407.766 96.4297C408.625 95.3672 409.648 94.5625 410.836 94.0156C412.039 93.4531 413.375 93.1719 414.844 93.1719C416.016 93.1719 417.086 93.3438 418.055 93.6875C419.039 94.0312 419.883 94.5859 420.586 95.3516C421.305 96.1172 421.852 97.1328 422.227 98.3984C422.617 99.6484 422.812 101.195 422.812 103.039V119H414.867V103.016C414.867 102 414.727 101.227 414.445 100.695C414.164 100.148 413.758 99.7734 413.227 99.5703C412.695 99.3672 412.047 99.2656 411.281 99.2656C410.469 99.2656 409.781 99.4219 409.219 99.7344C408.656 100.047 408.203 100.484 407.859 101.047C407.531 101.594 407.289 102.242 407.133 102.992C406.992 103.742 406.922 104.562 406.922 105.453ZM440.367 112.625V102.172C440.367 101.453 440.266 100.836 440.062 100.32C439.859 99.8047 439.539 99.4062 439.102 99.125C438.664 98.8281 438.078 98.6797 437.344 98.6797C436.75 98.6797 436.242 98.7812 435.82 98.9844C435.398 99.1875 435.078 99.4922 434.859 99.8984C434.641 100.305 434.531 100.82 434.531 101.445H426.633C426.633 100.273 426.891 99.1875 427.406 98.1875C427.938 97.1719 428.688 96.2891 429.656 95.5391C430.641 94.7891 431.812 94.2109 433.172 93.8047C434.547 93.3828 436.078 93.1719 437.766 93.1719C439.781 93.1719 441.578 93.5078 443.156 94.1797C444.75 94.8516 446.008 95.8594 446.93 97.2031C447.852 98.5312 448.312 100.203 448.312 102.219V112.602C448.312 114.258 448.406 115.516 448.594 116.375C448.781 117.219 449.047 117.961 449.391 118.602V119H441.469C441.094 118.219 440.812 117.266 440.625 116.141C440.453 115 440.367 113.828 440.367 112.625ZM441.328 103.508L441.375 107.727H437.883C437.148 107.727 436.523 107.828 436.008 108.031C435.508 108.234 435.102 108.516 434.789 108.875C434.492 109.219 434.273 109.609 434.133 110.047C434.008 110.484 433.945 110.945 433.945 111.43C433.945 111.898 434.055 112.32 434.273 112.695C434.508 113.055 434.82 113.336 435.211 113.539C435.602 113.742 436.039 113.844 436.523 113.844C437.398 113.844 438.141 113.68 438.75 113.352C439.375 113.008 439.852 112.594 440.18 112.109C440.508 111.625 440.672 111.172 440.672 110.75L442.406 113.984C442.094 114.609 441.734 115.242 441.328 115.883C440.938 116.523 440.445 117.117 439.852 117.664C439.273 118.195 438.562 118.633 437.719 118.977C436.875 119.305 435.852 119.469 434.648 119.469C433.086 119.469 431.648 119.148 430.336 118.508C429.039 117.867 428 116.977 427.219 115.836C426.438 114.68 426.047 113.352 426.047 111.852C426.047 110.539 426.281 109.367 426.75 108.336C427.234 107.305 427.961 106.43 428.93 105.711C429.898 104.992 431.133 104.445 432.633 104.07C434.133 103.695 435.898 103.508 437.93 103.508H441.328ZM461.039 83V119H453.117V83H461.039ZM473.695 116.023L480.258 93.6406H488.742L478.547 122.773C478.328 123.414 478.039 124.102 477.68 124.836C477.32 125.586 476.828 126.297 476.203 126.969C475.578 127.641 474.773 128.188 473.789 128.609C472.82 129.031 471.617 129.242 470.18 129.242C469.414 129.242 468.852 129.203 468.492 129.125C468.148 129.062 467.617 128.945 466.898 128.773V123.125C467.102 123.125 467.273 123.125 467.414 123.125C467.57 123.125 467.742 123.125 467.93 123.125C468.773 123.125 469.445 123.039 469.945 122.867C470.461 122.695 470.852 122.445 471.117 122.117C471.398 121.789 471.617 121.391 471.773 120.922L473.695 116.023ZM472.031 93.6406L477.023 111.383L477.891 119.75H472.594L463.57 93.6406H472.031ZM504.094 111.875C504.094 111.438 503.945 111.062 503.648 110.75C503.367 110.422 502.867 110.125 502.148 109.859C501.43 109.578 500.422 109.297 499.125 109.016C497.891 108.75 496.727 108.398 495.633 107.961C494.555 107.523 493.609 106.992 492.797 106.367C491.984 105.742 491.344 105 490.875 104.141C490.422 103.281 490.195 102.297 490.195 101.188C490.195 100.109 490.422 99.0938 490.875 98.1406C491.344 97.1719 492.023 96.3203 492.914 95.5859C493.82 94.8359 494.922 94.25 496.219 93.8281C497.516 93.3906 498.992 93.1719 500.648 93.1719C502.93 93.1719 504.898 93.5234 506.555 94.2266C508.211 94.9141 509.484 95.8828 510.375 97.1328C511.281 98.3672 511.734 99.7969 511.734 101.422H503.836C503.836 100.781 503.727 100.234 503.508 99.7812C503.305 99.3281 502.969 98.9844 502.5 98.75C502.031 98.5 501.406 98.375 500.625 98.375C500.078 98.375 499.578 98.4766 499.125 98.6797C498.688 98.8828 498.336 99.1641 498.07 99.5234C497.805 99.8828 497.672 100.305 497.672 100.789C497.672 101.133 497.75 101.445 497.906 101.727C498.078 101.992 498.336 102.242 498.68 102.477C499.023 102.695 499.461 102.898 499.992 103.086C500.523 103.258 501.164 103.414 501.914 103.555C503.617 103.867 505.211 104.312 506.695 104.891C508.18 105.469 509.383 106.289 510.305 107.352C511.242 108.414 511.711 109.844 511.711 111.641C511.711 112.766 511.453 113.805 510.938 114.758C510.422 115.695 509.68 116.523 508.711 117.242C507.742 117.945 506.578 118.492 505.219 118.883C503.859 119.273 502.328 119.469 500.625 119.469C498.203 119.469 496.156 119.039 494.484 118.18C492.812 117.305 491.547 116.211 490.688 114.898C489.844 113.57 489.422 112.227 489.422 110.867H496.781C496.812 111.648 497 112.289 497.344 112.789C497.703 113.289 498.18 113.656 498.773 113.891C499.367 114.125 500.055 114.242 500.836 114.242C501.555 114.242 502.148 114.141 502.617 113.938C503.102 113.734 503.469 113.461 503.719 113.117C503.969 112.758 504.094 112.344 504.094 111.875ZM523.758 93.6406V119H515.836V93.6406H523.758ZM515.367 87.1016C515.367 85.9766 515.773 85.0547 516.586 84.3359C517.398 83.6172 518.453 83.2578 519.75 83.2578C521.047 83.2578 522.102 83.6172 522.914 84.3359C523.727 85.0547 524.133 85.9766 524.133 87.1016C524.133 88.2266 523.727 89.1484 522.914 89.8672C522.102 90.5859 521.047 90.9453 519.75 90.9453C518.453 90.9453 517.398 90.5859 516.586 89.8672C515.773 89.1484 515.367 88.2266 515.367 87.1016ZM541.922 111.875C541.922 111.438 541.773 111.062 541.477 110.75C541.195 110.422 540.695 110.125 539.977 109.859C539.258 109.578 538.25 109.297 536.953 109.016C535.719 108.75 534.555 108.398 533.461 107.961C532.383 107.523 531.438 106.992 530.625 106.367C529.812 105.742 529.172 105 528.703 104.141C528.25 103.281 528.023 102.297 528.023 101.188C528.023 100.109 528.25 99.0938 528.703 98.1406C529.172 97.1719 529.852 96.3203 530.742 95.5859C531.648 94.8359 532.75 94.25 534.047 93.8281C535.344 93.3906 536.82 93.1719 538.477 93.1719C540.758 93.1719 542.727 93.5234 544.383 94.2266C546.039 94.9141 547.312 95.8828 548.203 97.1328C549.109 98.3672 549.562 99.7969 549.562 101.422H541.664C541.664 100.781 541.555 100.234 541.336 99.7812C541.133 99.3281 540.797 98.9844 540.328 98.75C539.859 98.5 539.234 98.375 538.453 98.375C537.906 98.375 537.406 98.4766 536.953 98.6797C536.516 98.8828 536.164 99.1641 535.898 99.5234C535.633 99.8828 535.5 100.305 535.5 100.789C535.5 101.133 535.578 101.445 535.734 101.727C535.906 101.992 536.164 102.242 536.508 102.477C536.852 102.695 537.289 102.898 537.82 103.086C538.352 103.258 538.992 103.414 539.742 103.555C541.445 103.867 543.039 104.312 544.523 104.891C546.008 105.469 547.211 106.289 548.133 107.352C549.07 108.414 549.539 109.844 549.539 111.641C549.539 112.766 549.281 113.805 548.766 114.758C548.25 115.695 547.508 116.523 546.539 117.242C545.57 117.945 544.406 118.492 543.047 118.883C541.688 119.273 540.156 119.469 538.453 119.469C536.031 119.469 533.984 119.039 532.312 118.18C530.641 117.305 529.375 116.211 528.516 114.898C527.672 113.57 527.25 112.227 527.25 110.867H534.609C534.641 111.648 534.828 112.289 535.172 112.789C535.531 113.289 536.008 113.656 536.602 113.891C537.195 114.125 537.883 114.242 538.664 114.242C539.383 114.242 539.977 114.141 540.445 113.938C540.93 113.734 541.297 113.461 541.547 113.117C541.797 112.758 541.922 112.344 541.922 111.875Z" fill="black"/>
<path d="M1134 0H1348C1356.28 0 1363 6.71573 1363 15V148C1363 156.284 1356.28 163 1348 163H1134V0Z" fill="#FEDFD4"/>
<mask id="path-5-outside-1_3_82" maskUnits="userSpaceOnUse" x="1212.5" y="43.5" width="72" height="76" fill="black">
<rect fill="white" x="1212.5" y="43.5" width="72" height="76"/>
<path d="M1257.78 110.795L1258.17 117.033C1258.2 117.55 1257.82 118.005 1257.3 118.082C1255.41 118.359 1253.48 118.5 1251.56 118.5C1249.65 118.5 1247.72 118.359 1245.83 118.082C1245.3 118.005 1244.93 117.55 1244.96 117.033L1245.29 111.677C1241.26 110.891 1237.48 109.371 1234.05 107.148L1230.39 111.163C1230.04 111.55 1229.44 111.612 1229.01 111.305C1225.91 109.088 1223.19 106.436 1220.9 103.423C1220.59 103.006 1220.65 102.425 1221.05 102.081L1225.18 98.5235C1222.89 95.1861 1221.33 91.5191 1220.52 87.5987L1215.01 87.921C1214.48 87.9525 1214.01 87.5844 1213.93 87.0723C1213.64 85.2408 1213.5 83.3658 1213.5 81.4989C1213.5 79.6323 1213.64 77.7573 1213.93 75.9255C1214.01 75.4134 1214.48 75.037 1215.01 75.0768L1220.52 75.3991C1221.33 71.48 1222.89 67.8127 1225.18 64.4753L1221.05 60.9166C1220.65 60.5732 1220.59 59.9915 1220.9 59.5751C1223.18 56.565 1225.91 53.9132 1229.01 51.6928C1229.44 51.3858 1230.04 51.448 1230.39 51.8344L1234.05 55.8498C1237.51 53.619 1241.42 52.0541 1245.48 51.2839L1245.04 45.9743C1245 45.4495 1245.38 44.9818 1245.92 44.9043C1249.64 44.3652 1253.49 44.3652 1257.21 44.9043C1257.75 44.9818 1258.13 45.4496 1258.09 45.9743L1257.57 52.1893C1257.52 52.7401 1257.02 53.1503 1256.46 53.105C1255.89 53.0601 1255.47 52.5776 1255.52 52.0273L1255.96 46.7572C1253.05 46.4128 1250.08 46.4128 1247.17 46.7572L1247.61 52.0268C1247.66 52.546 1247.28 53.0109 1246.75 53.0949C1242.36 53.7915 1238.12 55.4843 1234.48 57.9899C1234.05 58.2849 1233.46 58.2181 1233.11 57.8373L1229.48 53.8537C1227.1 55.6511 1224.97 57.7247 1223.12 60.034L1227.22 63.565C1227.61 63.9035 1227.68 64.4749 1227.38 64.8912C1224.81 68.4236 1223.12 72.3693 1222.38 76.6188C1222.29 77.1218 1221.82 77.4795 1221.3 77.4485L1215.84 77.1288C1215.65 78.5723 1215.56 80.0384 1215.56 81.499C1215.56 82.9599 1215.65 84.4259 1215.84 85.8692L1221.3 85.5495C1221.82 85.5157 1222.29 85.8767 1222.38 86.3793C1223.12 90.6301 1224.81 94.5761 1227.38 98.1078C1227.68 98.5242 1227.61 99.0954 1227.22 99.434L1223.12 102.964C1224.97 105.276 1227.11 107.349 1229.48 109.144L1233.11 105.161C1233.46 104.779 1234.05 104.713 1234.48 105.008C1238.11 107.508 1242.17 109.143 1246.54 109.869C1247.06 109.955 1247.43 110.406 1247.4 110.915L1247.07 116.229C1250.04 116.589 1253.09 116.589 1256.06 116.229L1255.73 110.915C1255.7 110.363 1256.13 109.89 1256.7 109.857C1257.26 109.827 1257.75 110.244 1257.78 110.795ZM1279.87 67.5195C1281.52 67.5195 1282.86 68.8234 1282.86 70.4259C1282.86 72.0285 1281.52 73.3323 1279.87 73.3323C1279.49 73.3323 1279.13 73.2564 1278.8 73.131L1276 75.947C1275.8 76.142 1275.54 76.2524 1275.26 76.2524H1260.97C1260.4 76.2524 1259.94 75.8048 1259.94 75.2524C1259.94 74.7 1260.4 74.2524 1260.97 74.2524H1274.82L1277.25 71.8052C1277.02 71.3928 1276.88 70.9277 1276.88 70.4261C1276.88 68.8232 1278.22 67.5195 1279.87 67.5195ZM1278.93 70.4259C1278.93 70.9256 1279.35 71.3321 1279.87 71.3321C1280.38 71.3321 1280.8 70.9256 1280.8 70.4259C1280.8 69.9263 1280.38 69.5197 1279.87 69.5197C1279.35 69.5196 1278.93 69.9261 1278.93 70.4259ZM1268.7 64.8892L1272.51 59.5583C1272.12 59.0691 1271.89 58.4651 1271.89 57.8029C1271.89 56.2003 1273.23 54.8965 1274.87 54.8965C1276.52 54.8965 1277.86 56.2003 1277.86 57.8029C1277.86 59.4054 1276.52 60.7092 1274.87 60.7092C1274.66 60.7092 1274.45 60.6835 1274.24 60.6403L1270.08 66.4604C1269.89 66.729 1269.57 66.8895 1269.23 66.8895H1257.92C1257.35 66.8895 1256.89 66.4419 1256.89 65.8895C1256.89 65.3371 1257.35 64.8895 1257.92 64.8895H1268.7V64.8892ZM1273.94 57.8029C1273.94 58.3025 1274.36 58.7091 1274.87 58.7091C1275.39 58.7091 1275.81 58.3025 1275.81 57.8029C1275.81 57.3032 1275.39 56.8967 1274.87 56.8967C1274.36 56.8965 1273.94 57.3031 1273.94 57.8029ZM1277.62 105.196C1277.62 106.798 1276.28 108.102 1274.63 108.102C1272.98 108.102 1271.64 106.798 1271.64 105.196C1271.64 104.412 1271.96 103.703 1272.48 103.179L1268.69 97.8852H1257.92C1257.35 97.8852 1256.89 97.4376 1256.89 96.8852C1256.89 96.3328 1257.35 95.8852 1257.92 95.8852H1269.23C1269.57 95.8852 1269.89 96.0456 1270.08 96.3143L1274.37 102.315C1274.46 102.307 1274.54 102.289 1274.63 102.289C1276.28 102.289 1277.62 103.593 1277.62 105.196ZM1275.56 105.196C1275.56 104.696 1275.14 104.289 1274.63 104.289C1274.11 104.289 1273.69 104.696 1273.69 105.196C1273.69 105.695 1274.11 106.102 1274.63 106.102C1275.14 106.102 1275.56 105.695 1275.56 105.196ZM1282.61 92.8506C1282.61 94.4532 1281.27 95.757 1279.62 95.757C1277.97 95.757 1276.63 94.4532 1276.63 92.8506C1276.63 92.2267 1276.84 91.6518 1277.18 91.1777L1274.82 88.8004H1260.97C1260.4 88.8004 1259.94 88.3528 1259.94 87.8004C1259.94 87.248 1260.4 86.8004 1260.97 86.8004H1275.26C1275.54 86.8004 1275.8 86.9109 1276 87.1058L1278.91 90.0363C1279.14 89.9817 1279.37 89.9444 1279.62 89.9444C1281.27 89.9443 1282.61 91.2479 1282.61 92.8506ZM1280.55 92.8506C1280.55 92.351 1280.13 91.9444 1279.62 91.9444C1279.11 91.9444 1278.69 92.351 1278.69 92.8506C1278.69 93.3503 1279.11 93.7569 1279.62 93.7569C1280.13 93.7569 1280.55 93.3503 1280.55 92.8506ZM1283.5 81.5261C1283.5 83.1286 1282.16 84.4324 1280.51 84.4324C1279.22 84.4324 1278.14 83.6352 1277.71 82.5258H1255.16V100.204C1255.16 103.826 1252.13 106.773 1248.41 106.773C1245.68 106.773 1243.27 105.218 1242.21 102.835C1242.17 102.836 1242.13 102.837 1242.08 102.837C1238.36 102.837 1235.33 99.8896 1235.33 96.2674C1235.33 96.0939 1235.33 95.9203 1235.35 95.7475C1233.74 95.4353 1232.22 94.6326 1230.98 93.4249C1229.39 91.8756 1228.51 89.8161 1228.51 87.6253C1228.51 85.4345 1229.39 83.3749 1230.98 81.826C1231.1 81.7098 1231.23 81.6079 1231.36 81.4992C1231.23 81.3903 1231.1 81.2884 1230.98 81.1724C1229.39 79.6232 1228.51 77.5636 1228.51 75.3731C1228.51 73.1823 1229.39 71.1227 1230.98 69.5735C1232.22 68.3658 1233.74 67.563 1235.35 67.2509C1235.33 67.078 1235.33 66.9046 1235.33 66.731C1235.33 63.1085 1238.36 60.1615 1242.08 60.1615C1242.13 60.1615 1242.17 60.1618 1242.21 60.1628C1243.27 57.7799 1245.68 56.2252 1248.41 56.2252C1252.13 56.2252 1255.16 59.1721 1255.16 62.7944V80.5259H1277.71C1278.14 79.4168 1279.22 78.62 1280.51 78.62C1282.16 78.6198 1283.5 79.9235 1283.5 81.5261ZM1232.44 79.7581C1232.72 80.0356 1233.05 80.2792 1233.39 80.499H1253.11V62.7941C1253.11 60.2745 1251 58.225 1248.41 58.225C1246.68 58.225 1245.14 59.1203 1244.32 60.5297C1245.15 60.813 1245.92 61.2544 1246.59 61.8364C1246.6 61.8432 1246.6 61.8529 1246.61 61.8598C1246.99 61.6858 1247.42 61.5815 1247.87 61.5815C1249.51 61.5815 1250.86 62.8853 1250.86 64.4874C1250.86 66.09 1249.51 67.3938 1247.87 67.3938C1246.22 67.3938 1244.88 66.09 1244.88 64.4874C1244.88 64.0541 1244.98 63.6465 1245.16 63.2768C1244.3 62.5582 1243.22 62.1612 1242.08 62.1612C1239.49 62.1612 1237.38 64.2111 1237.38 66.7307C1237.38 66.8749 1237.4 67.0183 1237.41 67.1615C1238.63 67.284 1239.8 67.6579 1240.85 68.27C1241.31 67.9875 1241.85 67.8176 1242.43 67.8176C1244.08 67.8176 1245.42 69.1214 1245.42 70.7239C1245.42 72.3262 1244.08 73.6299 1242.43 73.6299C1240.78 73.6299 1239.44 72.3261 1239.44 70.7239C1239.44 70.43 1239.5 70.1516 1239.58 69.8839C1238.66 69.388 1237.63 69.1172 1236.55 69.1139C1235.06 69.1935 1233.6 69.857 1232.44 70.9873C1231.23 72.1588 1230.57 73.7162 1230.57 75.3728C1230.57 77.0293 1231.23 78.5866 1232.44 79.7581ZM1241.5 70.7241C1241.5 71.2237 1241.92 71.63 1242.43 71.63C1242.95 71.63 1243.36 71.2237 1243.36 70.7241C1243.36 70.2244 1242.95 69.8179 1242.43 69.8179C1241.92 69.8177 1241.5 70.2243 1241.5 70.7241ZM1247.87 65.3938C1248.38 65.3938 1248.8 64.9872 1248.8 64.4876C1248.8 63.9879 1248.38 63.5816 1247.87 63.5816C1247.35 63.5816 1246.93 63.9879 1246.93 64.4876C1246.93 64.9872 1247.35 65.3938 1247.87 65.3938ZM1253.11 100.204V82.499H1233.37C1233.03 82.7166 1232.72 82.9651 1232.44 83.2399C1231.23 84.4112 1230.57 85.9685 1230.57 87.6251C1230.57 89.2817 1231.23 90.8391 1232.44 92.0106C1233.6 93.1409 1235.06 93.8044 1236.55 93.884C1237.61 93.8807 1238.63 93.62 1239.54 93.1388C1239.48 92.9112 1239.44 92.6768 1239.44 92.4315C1239.44 90.8289 1240.78 89.5251 1242.43 89.5251C1244.08 89.5251 1245.42 90.8289 1245.42 92.4315C1245.42 94.0341 1244.08 95.3379 1242.43 95.3379C1241.79 95.3379 1241.2 95.1364 1240.71 94.8008C1239.7 95.3682 1238.58 95.7192 1237.41 95.8365C1237.4 95.9797 1237.38 96.1231 1237.38 96.2674C1237.38 98.787 1239.49 100.836 1242.08 100.836C1243.19 100.836 1244.26 100.455 1245.1 99.7652C1244.96 99.4261 1244.88 99.0564 1244.88 98.6677C1244.88 97.0652 1246.22 95.7614 1247.87 95.7614C1249.51 95.7614 1250.86 97.0652 1250.86 98.6677C1250.86 100.27 1249.51 101.574 1247.87 101.574C1247.37 101.574 1246.91 101.445 1246.5 101.236C1245.85 101.779 1245.11 102.198 1244.32 102.468C1245.14 103.878 1246.68 104.773 1248.41 104.773C1251 104.773 1253.11 102.724 1253.11 100.204ZM1247.87 99.5741C1248.38 99.5741 1248.8 99.1675 1248.8 98.6679C1248.8 98.1682 1248.38 97.7617 1247.87 97.7617C1247.35 97.7617 1246.93 98.1682 1246.93 98.6679C1246.93 99.1675 1247.35 99.5741 1247.87 99.5741ZM1242.43 93.3379C1242.95 93.3379 1243.36 92.9313 1243.36 92.4316C1243.36 91.932 1242.95 91.5254 1242.43 91.5254C1241.92 91.5254 1241.5 91.932 1241.5 92.4316C1241.5 92.5993 1241.55 92.7544 1241.63 92.8892C1241.65 92.9087 1241.67 92.9252 1241.68 92.9463C1241.7 92.9687 1241.71 92.9933 1241.73 93.0166C1241.9 93.2114 1242.15 93.3379 1242.43 93.3379ZM1281.44 81.5261C1281.44 81.0264 1281.02 80.6198 1280.51 80.6198C1280 80.6198 1279.58 81.0264 1279.58 81.5261C1279.58 82.0257 1280 82.4323 1280.51 82.4323C1281.02 82.4323 1281.44 82.0257 1281.44 81.5261Z"/>
</mask>
<path d="M1257.78 110.795L1258.17 117.033C1258.2 117.55 1257.82 118.005 1257.3 118.082C1255.41 118.359 1253.48 118.5 1251.56 118.5C1249.65 118.5 1247.72 118.359 1245.83 118.082C1245.3 118.005 1244.93 117.55 1244.96 117.033L1245.29 111.677C1241.26 110.891 1237.48 109.371 1234.05 107.148L1230.39 111.163C1230.04 111.55 1229.44 111.612 1229.01 111.305C1225.91 109.088 1223.19 106.436 1220.9 103.423C1220.59 103.006 1220.65 102.425 1221.05 102.081L1225.18 98.5235C1222.89 95.1861 1221.33 91.5191 1220.52 87.5987L1215.01 87.921C1214.48 87.9525 1214.01 87.5844 1213.93 87.0723C1213.64 85.2408 1213.5 83.3658 1213.5 81.4989C1213.5 79.6323 1213.64 77.7573 1213.93 75.9255C1214.01 75.4134 1214.48 75.037 1215.01 75.0768L1220.52 75.3991C1221.33 71.48 1222.89 67.8127 1225.18 64.4753L1221.05 60.9166C1220.65 60.5732 1220.59 59.9915 1220.9 59.5751C1223.18 56.565 1225.91 53.9132 1229.01 51.6928C1229.44 51.3858 1230.04 51.448 1230.39 51.8344L1234.05 55.8498C1237.51 53.619 1241.42 52.0541 1245.48 51.2839L1245.04 45.9743C1245 45.4495 1245.38 44.9818 1245.92 44.9043C1249.64 44.3652 1253.49 44.3652 1257.21 44.9043C1257.75 44.9818 1258.13 45.4496 1258.09 45.9743L1257.57 52.1893C1257.52 52.7401 1257.02 53.1503 1256.46 53.105C1255.89 53.0601 1255.47 52.5776 1255.52 52.0273L1255.96 46.7572C1253.05 46.4128 1250.08 46.4128 1247.17 46.7572L1247.61 52.0268C1247.66 52.546 1247.28 53.0109 1246.75 53.0949C1242.36 53.7915 1238.12 55.4843 1234.48 57.9899C1234.05 58.2849 1233.46 58.2181 1233.11 57.8373L1229.48 53.8537C1227.1 55.6511 1224.97 57.7247 1223.12 60.034L1227.22 63.565C1227.61 63.9035 1227.68 64.4749 1227.38 64.8912C1224.81 68.4236 1223.12 72.3693 1222.38 76.6188C1222.29 77.1218 1221.82 77.4795 1221.3 77.4485L1215.84 77.1288C1215.65 78.5723 1215.56 80.0384 1215.56 81.499C1215.56 82.9599 1215.65 84.4259 1215.84 85.8692L1221.3 85.5495C1221.82 85.5157 1222.29 85.8767 1222.38 86.3793C1223.12 90.6301 1224.81 94.5761 1227.38 98.1078C1227.68 98.5242 1227.61 99.0954 1227.22 99.434L1223.12 102.964C1224.97 105.276 1227.11 107.349 1229.48 109.144L1233.11 105.161C1233.46 104.779 1234.05 104.713 1234.48 105.008C1238.11 107.508 1242.17 109.143 1246.54 109.869C1247.06 109.955 1247.43 110.406 1247.4 110.915L1247.07 116.229C1250.04 116.589 1253.09 116.589 1256.06 116.229L1255.73 110.915C1255.7 110.363 1256.13 109.89 1256.7 109.857C1257.26 109.827 1257.75 110.244 1257.78 110.795ZM1279.87 67.5195C1281.52 67.5195 1282.86 68.8234 1282.86 70.4259C1282.86 72.0285 1281.52 73.3323 1279.87 73.3323C1279.49 73.3323 1279.13 73.2564 1278.8 73.131L1276 75.947C1275.8 76.142 1275.54 76.2524 1275.26 76.2524H1260.97C1260.4 76.2524 1259.94 75.8048 1259.94 75.2524C1259.94 74.7 1260.4 74.2524 1260.97 74.2524H1274.82L1277.25 71.8052C1277.02 71.3928 1276.88 70.9277 1276.88 70.4261C1276.88 68.8232 1278.22 67.5195 1279.87 67.5195ZM1278.93 70.4259C1278.93 70.9256 1279.35 71.3321 1279.87 71.3321C1280.38 71.3321 1280.8 70.9256 1280.8 70.4259C1280.8 69.9263 1280.38 69.5197 1279.87 69.5197C1279.35 69.5196 1278.93 69.9261 1278.93 70.4259ZM1268.7 64.8892L1272.51 59.5583C1272.12 59.0691 1271.89 58.4651 1271.89 57.8029C1271.89 56.2003 1273.23 54.8965 1274.87 54.8965C1276.52 54.8965 1277.86 56.2003 1277.86 57.8029C1277.86 59.4054 1276.52 60.7092 1274.87 60.7092C1274.66 60.7092 1274.45 60.6835 1274.24 60.6403L1270.08 66.4604C1269.89 66.729 1269.57 66.8895 1269.23 66.8895H1257.92C1257.35 66.8895 1256.89 66.4419 1256.89 65.8895C1256.89 65.3371 1257.35 64.8895 1257.92 64.8895H1268.7V64.8892ZM1273.94 57.8029C1273.94 58.3025 1274.36 58.7091 1274.87 58.7091C1275.39 58.7091 1275.81 58.3025 1275.81 57.8029C1275.81 57.3032 1275.39 56.8967 1274.87 56.8967C1274.36 56.8965 1273.94 57.3031 1273.94 57.8029ZM1277.62 105.196C1277.62 106.798 1276.28 108.102 1274.63 108.102C1272.98 108.102 1271.64 106.798 1271.64 105.196C1271.64 104.412 1271.96 103.703 1272.48 103.179L1268.69 97.8852H1257.92C1257.35 97.8852 1256.89 97.4376 1256.89 96.8852C1256.89 96.3328 1257.35 95.8852 1257.92 95.8852H1269.23C1269.57 95.8852 1269.89 96.0456 1270.08 96.3143L1274.37 102.315C1274.46 102.307 1274.54 102.289 1274.63 102.289C1276.28 102.289 1277.62 103.593 1277.62 105.196ZM1275.56 105.196C1275.56 104.696 1275.14 104.289 1274.63 104.289C1274.11 104.289 1273.69 104.696 1273.69 105.196C1273.69 105.695 1274.11 106.102 1274.63 106.102C1275.14 106.102 1275.56 105.695 1275.56 105.196ZM1282.61 92.8506C1282.61 94.4532 1281.27 95.757 1279.62 95.757C1277.97 95.757 1276.63 94.4532 1276.63 92.8506C1276.63 92.2267 1276.84 91.6518 1277.18 91.1777L1274.82 88.8004H1260.97C1260.4 88.8004 1259.94 88.3528 1259.94 87.8004C1259.94 87.248 1260.4 86.8004 1260.97 86.8004H1275.26C1275.54 86.8004 1275.8 86.9109 1276 87.1058L1278.91 90.0363C1279.14 89.9817 1279.37 89.9444 1279.62 89.9444C1281.27 89.9443 1282.61 91.2479 1282.61 92.8506ZM1280.55 92.8506C1280.55 92.351 1280.13 91.9444 1279.62 91.9444C1279.11 91.9444 1278.69 92.351 1278.69 92.8506C1278.69 93.3503 1279.11 93.7569 1279.62 93.7569C1280.13 93.7569 1280.55 93.3503 1280.55 92.8506ZM1283.5 81.5261C1283.5 83.1286 1282.16 84.4324 1280.51 84.4324C1279.22 84.4324 1278.14 83.6352 1277.71 82.5258H1255.16V100.204C1255.16 103.826 1252.13 106.773 1248.41 106.773C1245.68 106.773 1243.27 105.218 1242.21 102.835C1242.17 102.836 1242.13 102.837 1242.08 102.837C1238.36 102.837 1235.33 99.8896 1235.33 96.2674C1235.33 96.0939 1235.33 95.9203 1235.35 95.7475C1233.74 95.4353 1232.22 94.6326 1230.98 93.4249C1229.39 91.8756 1228.51 89.8161 1228.51 87.6253C1228.51 85.4345 1229.39 83.3749 1230.98 81.826C1231.1 81.7098 1231.23 81.6079 1231.36 81.4992C1231.23 81.3903 1231.1 81.2884 1230.98 81.1724C1229.39 79.6232 1228.51 77.5636 1228.51 75.3731C1228.51 73.1823 1229.39 71.1227 1230.98 69.5735C1232.22 68.3658 1233.74 67.563 1235.35 67.2509C1235.33 67.078 1235.33 66.9046 1235.33 66.731C1235.33 63.1085 1238.36 60.1615 1242.08 60.1615C1242.13 60.1615 1242.17 60.1618 1242.21 60.1628C1243.27 57.7799 1245.68 56.2252 1248.41 56.2252C1252.13 56.2252 1255.16 59.1721 1255.16 62.7944V80.5259H1277.71C1278.14 79.4168 1279.22 78.62 1280.51 78.62C1282.16 78.6198 1283.5 79.9235 1283.5 81.5261ZM1232.44 79.7581C1232.72 80.0356 1233.05 80.2792 1233.39 80.499H1253.11V62.7941C1253.11 60.2745 1251 58.225 1248.41 58.225C1246.68 58.225 1245.14 59.1203 1244.32 60.5297C1245.15 60.813 1245.92 61.2544 1246.59 61.8364C1246.6 61.8432 1246.6 61.8529 1246.61 61.8598C1246.99 61.6858 1247.42 61.5815 1247.87 61.5815C1249.51 61.5815 1250.86 62.8853 1250.86 64.4874C1250.86 66.09 1249.51 67.3938 1247.87 67.3938C1246.22 67.3938 1244.88 66.09 1244.88 64.4874C1244.88 64.0541 1244.98 63.6465 1245.16 63.2768C1244.3 62.5582 1243.22 62.1612 1242.08 62.1612C1239.49 62.1612 1237.38 64.2111 1237.38 66.7307C1237.38 66.8749 1237.4 67.0183 1237.41 67.1615C1238.63 67.284 1239.8 67.6579 1240.85 68.27C1241.31 67.9875 1241.85 67.8176 1242.43 67.8176C1244.08 67.8176 1245.42 69.1214 1245.42 70.7239C1245.42 72.3262 1244.08 73.6299 1242.43 73.6299C1240.78 73.6299 1239.44 72.3261 1239.44 70.7239C1239.44 70.43 1239.5 70.1516 1239.58 69.8839C1238.66 69.388 1237.63 69.1172 1236.55 69.1139C1235.06 69.1935 1233.6 69.857 1232.44 70.9873C1231.23 72.1588 1230.57 73.7162 1230.57 75.3728C1230.57 77.0293 1231.23 78.5866 1232.44 79.7581ZM1241.5 70.7241C1241.5 71.2237 1241.92 71.63 1242.43 71.63C1242.95 71.63 1243.36 71.2237 1243.36 70.7241C1243.36 70.2244 1242.95 69.8179 1242.43 69.8179C1241.92 69.8177 1241.5 70.2243 1241.5 70.7241ZM1247.87 65.3938C1248.38 65.3938 1248.8 64.9872 1248.8 64.4876C1248.8 63.9879 1248.38 63.5816 1247.87 63.5816C1247.35 63.5816 1246.93 63.9879 1246.93 64.4876C1246.93 64.9872 1247.35 65.3938 1247.87 65.3938ZM1253.11 100.204V82.499H1233.37C1233.03 82.7166 1232.72 82.9651 1232.44 83.2399C1231.23 84.4112 1230.57 85.9685 1230.57 87.6251C1230.57 89.2817 1231.23 90.8391 1232.44 92.0106C1233.6 93.1409 1235.06 93.8044 1236.55 93.884C1237.61 93.8807 1238.63 93.62 1239.54 93.1388C1239.48 92.9112 1239.44 92.6768 1239.44 92.4315C1239.44 90.8289 1240.78 89.5251 1242.43 89.5251C1244.08 89.5251 1245.42 90.8289 1245.42 92.4315C1245.42 94.0341 1244.08 95.3379 1242.43 95.3379C1241.79 95.3379 1241.2 95.1364 1240.71 94.8008C1239.7 95.3682 1238.58 95.7192 1237.41 95.8365C1237.4 95.9797 1237.38 96.1231 1237.38 96.2674C1237.38 98.787 1239.49 100.836 1242.08 100.836C1243.19 100.836 1244.26 100.455 1245.1 99.7652C1244.96 99.4261 1244.88 99.0564 1244.88 98.6677C1244.88 97.0652 1246.22 95.7614 1247.87 95.7614C1249.51 95.7614 1250.86 97.0652 1250.86 98.6677C1250.86 100.27 1249.51 101.574 1247.87 101.574C1247.37 101.574 1246.91 101.445 1246.5 101.236C1245.85 101.779 1245.11 102.198 1244.32 102.468C1245.14 103.878 1246.68 104.773 1248.41 104.773C1251 104.773 1253.11 102.724 1253.11 100.204ZM1247.87 99.5741C1248.38 99.5741 1248.8 99.1675 1248.8 98.6679C1248.8 98.1682 1248.38 97.7617 1247.87 97.7617C1247.35 97.7617 1246.93 98.1682 1246.93 98.6679C1246.93 99.1675 1247.35 99.5741 1247.87 99.5741ZM1242.43 93.3379C1242.95 93.3379 1243.36 92.9313 1243.36 92.4316C1243.36 91.932 1242.95 91.5254 1242.43 91.5254C1241.92 91.5254 1241.5 91.932 1241.5 92.4316C1241.5 92.5993 1241.55 92.7544 1241.63 92.8892C1241.65 92.9087 1241.67 92.9252 1241.68 92.9463C1241.7 92.9687 1241.71 92.9933 1241.73 93.0166C1241.9 93.2114 1242.15 93.3379 1242.43 93.3379ZM1281.44 81.5261C1281.44 81.0264 1281.02 80.6198 1280.51 80.6198C1280 80.6198 1279.58 81.0264 1279.58 81.5261C1279.58 82.0257 1280 82.4323 1280.51 82.4323C1281.02 82.4323 1281.44 82.0257 1281.44 81.5261Z" fill="white"/>
<path d="M1257.78 110.795L1258.17 117.033C1258.2 117.55 1257.82 118.005 1257.3 118.082C1255.41 118.359 1253.48 118.5 1251.56 118.5C1249.65 118.5 1247.72 118.359 1245.83 118.082C1245.3 118.005 1244.93 117.55 1244.96 117.033L1245.29 111.677C1241.26 110.891 1237.48 109.371 1234.05 107.148L1230.39 111.163C1230.04 111.55 1229.44 111.612 1229.01 111.305C1225.91 109.088 1223.19 106.436 1220.9 103.423C1220.59 103.006 1220.65 102.425 1221.05 102.081L1225.18 98.5235C1222.89 95.1861 1221.33 91.5191 1220.52 87.5987L1215.01 87.921C1214.48 87.9525 1214.01 87.5844 1213.93 87.0723C1213.64 85.2408 1213.5 83.3658 1213.5 81.4989C1213.5 79.6323 1213.64 77.7573 1213.93 75.9255C1214.01 75.4134 1214.48 75.037 1215.01 75.0768L1220.52 75.3991C1221.33 71.48 1222.89 67.8127 1225.18 64.4753L1221.05 60.9166C1220.65 60.5732 1220.59 59.9915 1220.9 59.5751C1223.18 56.565 1225.91 53.9132 1229.01 51.6928C1229.44 51.3858 1230.04 51.448 1230.39 51.8344L1234.05 55.8498C1237.51 53.619 1241.42 52.0541 1245.48 51.2839L1245.04 45.9743C1245 45.4495 1245.38 44.9818 1245.92 44.9043C1249.64 44.3652 1253.49 44.3652 1257.21 44.9043C1257.75 44.9818 1258.13 45.4496 1258.09 45.9743L1257.57 52.1893C1257.52 52.7401 1257.02 53.1503 1256.46 53.105C1255.89 53.0601 1255.47 52.5776 1255.52 52.0273L1255.96 46.7572C1253.05 46.4128 1250.08 46.4128 1247.17 46.7572L1247.61 52.0268C1247.66 52.546 1247.28 53.0109 1246.75 53.0949C1242.36 53.7915 1238.12 55.4843 1234.48 57.9899C1234.05 58.2849 1233.46 58.2181 1233.11 57.8373L1229.48 53.8537C1227.1 55.6511 1224.97 57.7247 1223.12 60.034L1227.22 63.565C1227.61 63.9035 1227.68 64.4749 1227.38 64.8912C1224.81 68.4236 1223.12 72.3693 1222.38 76.6188C1222.29 77.1218 1221.82 77.4795 1221.3 77.4485L1215.84 77.1288C1215.65 78.5723 1215.56 80.0384 1215.56 81.499C1215.56 82.9599 1215.65 84.4259 1215.84 85.8692L1221.3 85.5495C1221.82 85.5157 1222.29 85.8767 1222.38 86.3793C1223.12 90.6301 1224.81 94.5761 1227.38 98.1078C1227.68 98.5242 1227.61 99.0954 1227.22 99.434L1223.12 102.964C1224.97 105.276 1227.11 107.349 1229.48 109.144L1233.11 105.161C1233.46 104.779 1234.05 104.713 1234.48 105.008C1238.11 107.508 1242.17 109.143 1246.54 109.869C1247.06 109.955 1247.43 110.406 1247.4 110.915L1247.07 116.229C1250.04 116.589 1253.09 116.589 1256.06 116.229L1255.73 110.915C1255.7 110.363 1256.13 109.89 1256.7 109.857C1257.26 109.827 1257.75 110.244 1257.78 110.795ZM1279.87 67.5195C1281.52 67.5195 1282.86 68.8234 1282.86 70.4259C1282.86 72.0285 1281.52 73.3323 1279.87 73.3323C1279.49 73.3323 1279.13 73.2564 1278.8 73.131L1276 75.947C1275.8 76.142 1275.54 76.2524 1275.26 76.2524H1260.97C1260.4 76.2524 1259.94 75.8048 1259.94 75.2524C1259.94 74.7 1260.4 74.2524 1260.97 74.2524H1274.82L1277.25 71.8052C1277.02 71.3928 1276.88 70.9277 1276.88 70.4261C1276.88 68.8232 1278.22 67.5195 1279.87 67.5195ZM1278.93 70.4259C1278.93 70.9256 1279.35 71.3321 1279.87 71.3321C1280.38 71.3321 1280.8 70.9256 1280.8 70.4259C1280.8 69.9263 1280.38 69.5197 1279.87 69.5197C1279.35 69.5196 1278.93 69.9261 1278.93 70.4259ZM1268.7 64.8892L1272.51 59.5583C1272.12 59.0691 1271.89 58.4651 1271.89 57.8029C1271.89 56.2003 1273.23 54.8965 1274.87 54.8965C1276.52 54.8965 1277.86 56.2003 1277.86 57.8029C1277.86 59.4054 1276.52 60.7092 1274.87 60.7092C1274.66 60.7092 1274.45 60.6835 1274.24 60.6403L1270.08 66.4604C1269.89 66.729 1269.57 66.8895 1269.23 66.8895H1257.92C1257.35 66.8895 1256.89 66.4419 1256.89 65.8895C1256.89 65.3371 1257.35 64.8895 1257.92 64.8895H1268.7V64.8892ZM1273.94 57.8029C1273.94 58.3025 1274.36 58.7091 1274.87 58.7091C1275.39 58.7091 1275.81 58.3025 1275.81 57.8029C1275.81 57.3032 1275.39 56.8967 1274.87 56.8967C1274.36 56.8965 1273.94 57.3031 1273.94 57.8029ZM1277.62 105.196C1277.62 106.798 1276.28 108.102 1274.63 108.102C1272.98 108.102 1271.64 106.798 1271.64 105.196C1271.64 104.412 1271.96 103.703 1272.48 103.179L1268.69 97.8852H1257.92C1257.35 97.8852 1256.89 97.4376 1256.89 96.8852C1256.89 96.3328 1257.35 95.8852 1257.92 95.8852H1269.23C1269.57 95.8852 1269.89 96.0456 1270.08 96.3143L1274.37 102.315C1274.46 102.307 1274.54 102.289 1274.63 102.289C1276.28 102.289 1277.62 103.593 1277.62 105.196ZM1275.56 105.196C1275.56 104.696 1275.14 104.289 1274.63 104.289C1274.11 104.289 1273.69 104.696 1273.69 105.196C1273.69 105.695 1274.11 106.102 1274.63 106.102C1275.14 106.102 1275.56 105.695 1275.56 105.196ZM1282.61 92.8506C1282.61 94.4532 1281.27 95.757 1279.62 95.757C1277.97 95.757 1276.63 94.4532 1276.63 92.8506C1276.63 92.2267 1276.84 91.6518 1277.18 91.1777L1274.82 88.8004H1260.97C1260.4 88.8004 1259.94 88.3528 1259.94 87.8004C1259.94 87.248 1260.4 86.8004 1260.97 86.8004H1275.26C1275.54 86.8004 1275.8 86.9109 1276 87.1058L1278.91 90.0363C1279.14 89.9817 1279.37 89.9444 1279.62 89.9444C1281.27 89.9443 1282.61 91.2479 1282.61 92.8506ZM1280.55 92.8506C1280.55 92.351 1280.13 91.9444 1279.62 91.9444C1279.11 91.9444 1278.69 92.351 1278.69 92.8506C1278.69 93.3503 1279.11 93.7569 1279.62 93.7569C1280.13 93.7569 1280.55 93.3503 1280.55 92.8506ZM1283.5 81.5261C1283.5 83.1286 1282.16 84.4324 1280.51 84.4324C1279.22 84.4324 1278.14 83.6352 1277.71 82.5258H1255.16V100.204C1255.16 103.826 1252.13 106.773 1248.41 106.773C1245.68 106.773 1243.27 105.218 1242.21 102.835C1242.17 102.836 1242.13 102.837 1242.08 102.837C1238.36 102.837 1235.33 99.8896 1235.33 96.2674C1235.33 96.0939 1235.33 95.9203 1235.35 95.7475C1233.74 95.4353 1232.22 94.6326 1230.98 93.4249C1229.39 91.8756 1228.51 89.8161 1228.51 87.6253C1228.51 85.4345 1229.39 83.3749 1230.98 81.826C1231.1 81.7098 1231.23 81.6079 1231.36 81.4992C1231.23 81.3903 1231.1 81.2884 1230.98 81.1724C1229.39 79.6232 1228.51 77.5636 1228.51 75.3731C1228.51 73.1823 1229.39 71.1227 1230.98 69.5735C1232.22 68.3658 1233.74 67.563 1235.35 67.2509C1235.33 67.078 1235.33 66.9046 1235.33 66.731C1235.33 63.1085 1238.36 60.1615 1242.08 60.1615C1242.13 60.1615 1242.17 60.1618 1242.21 60.1628C1243.27 57.7799 1245.68 56.2252 1248.41 56.2252C1252.13 56.2252 1255.16 59.1721 1255.16 62.7944V80.5259H1277.71C1278.14 79.4168 1279.22 78.62 1280.51 78.62C1282.16 78.6198 1283.5 79.9235 1283.5 81.5261ZM1232.44 79.7581C1232.72 80.0356 1233.05 80.2792 1233.39 80.499H1253.11V62.7941C1253.11 60.2745 1251 58.225 1248.41 58.225C1246.68 58.225 1245.14 59.1203 1244.32 60.5297C1245.15 60.813 1245.92 61.2544 1246.59 61.8364C1246.6 61.8432 1246.6 61.8529 1246.61 61.8598C1246.99 61.6858 1247.42 61.5815 1247.87 61.5815C1249.51 61.5815 1250.86 62.8853 1250.86 64.4874C1250.86 66.09 1249.51 67.3938 1247.87 67.3938C1246.22 67.3938 1244.88 66.09 1244.88 64.4874C1244.88 64.0541 1244.98 63.6465 1245.16 63.2768C1244.3 62.5582 1243.22 62.1612 1242.08 62.1612C1239.49 62.1612 1237.38 64.2111 1237.38 66.7307C1237.38 66.8749 1237.4 67.0183 1237.41 67.1615C1238.63 67.284 1239.8 67.6579 1240.85 68.27C1241.31 67.9875 1241.85 67.8176 1242.43 67.8176C1244.08 67.8176 1245.42 69.1214 1245.42 70.7239C1245.42 72.3262 1244.08 73.6299 1242.43 73.6299C1240.78 73.6299 1239.44 72.3261 1239.44 70.7239C1239.44 70.43 1239.5 70.1516 1239.58 69.8839C1238.66 69.388 1237.63 69.1172 1236.55 69.1139C1235.06 69.1935 1233.6 69.857 1232.44 70.9873C1231.23 72.1588 1230.57 73.7162 1230.57 75.3728C1230.57 77.0293 1231.23 78.5866 1232.44 79.7581ZM1241.5 70.7241C1241.5 71.2237 1241.92 71.63 1242.43 71.63C1242.95 71.63 1243.36 71.2237 1243.36 70.7241C1243.36 70.2244 1242.95 69.8179 1242.43 69.8179C1241.92 69.8177 1241.5 70.2243 1241.5 70.7241ZM1247.87 65.3938C1248.38 65.3938 1248.8 64.9872 1248.8 64.4876C1248.8 63.9879 1248.38 63.5816 1247.87 63.5816C1247.35 63.5816 1246.93 63.9879 1246.93 64.4876C1246.93 64.9872 1247.35 65.3938 1247.87 65.3938ZM1253.11 100.204V82.499H1233.37C1233.03 82.7166 1232.72 82.9651 1232.44 83.2399C1231.23 84.4112 1230.57 85.9685 1230.57 87.6251C1230.57 89.2817 1231.23 90.8391 1232.44 92.0106C1233.6 93.1409 1235.06 93.8044 1236.55 93.884C1237.61 93.8807 1238.63 93.62 1239.54 93.1388C1239.48 92.9112 1239.44 92.6768 1239.44 92.4315C1239.44 90.8289 1240.78 89.5251 1242.43 89.5251C1244.08 89.5251 1245.42 90.8289 1245.42 92.4315C1245.42 94.0341 1244.08 95.3379 1242.43 95.3379C1241.79 95.3379 1241.2 95.1364 1240.71 94.8008C1239.7 95.3682 1238.58 95.7192 1237.41 95.8365C1237.4 95.9797 1237.38 96.1231 1237.38 96.2674C1237.38 98.787 1239.49 100.836 1242.08 100.836C1243.19 100.836 1244.26 100.455 1245.1 99.7652C1244.96 99.4261 1244.88 99.0564 1244.88 98.6677C1244.88 97.0652 1246.22 95.7614 1247.87 95.7614C1249.51 95.7614 1250.86 97.0652 1250.86 98.6677C1250.86 100.27 1249.51 101.574 1247.87 101.574C1247.37 101.574 1246.91 101.445 1246.5 101.236C1245.85 101.779 1245.11 102.198 1244.32 102.468C1245.14 103.878 1246.68 104.773 1248.41 104.773C1251 104.773 1253.11 102.724 1253.11 100.204ZM1247.87 99.5741C1248.38 99.5741 1248.8 99.1675 1248.8 98.6679C1248.8 98.1682 1248.38 97.7617 1247.87 97.7617C1247.35 97.7617 1246.93 98.1682 1246.93 98.6679C1246.93 99.1675 1247.35 99.5741 1247.87 99.5741ZM1242.43 93.3379C1242.95 93.3379 1243.36 92.9313 1243.36 92.4316C1243.36 91.932 1242.95 91.5254 1242.43 91.5254C1241.92 91.5254 1241.5 91.932 1241.5 92.4316C1241.5 92.5993 1241.55 92.7544 1241.63 92.8892C1241.65 92.9087 1241.67 92.9252 1241.68 92.9463C1241.7 92.9687 1241.71 92.9933 1241.73 93.0166C1241.9 93.2114 1242.15 93.3379 1242.43 93.3379ZM1281.44 81.5261C1281.44 81.0264 1281.02 80.6198 1280.51 80.6198C1280 80.6198 1279.58 81.0264 1279.58 81.5261C1279.58 82.0257 1280 82.4323 1280.51 82.4323C1281.02 82.4323 1281.44 82.0257 1281.44 81.5261Z" stroke="white" mask="url(#path-5-outside-1_3_82)"/>
</svg>
