<svg width="1363" height="163" viewBox="0 0 1363 163" fill="none" xmlns="http://www.w3.org/2000/svg">
<path d="M0 15C0 6.71573 6.71573 0 15 0H37V163H15C6.71573 163 0 156.284 0 148V15Z" fill="#424242"/>
<rect width="1097" height="163" transform="translate(37)" fill="#F0F0F0"/>
<path d="M101.906 53.9219L94.3945 51.2383V48.0859L104.602 52.375V54.6367L101.906 53.9219ZM94.3945 56.1719L101.918 53.4297L104.602 52.7852V55.0352L94.3945 59.3242V56.1719ZM119.578 53.5117H115.195L115.172 51.0977H118.852C119.5 51.0977 120.031 51.0156 120.445 50.8516C120.859 50.6797 121.168 50.4336 121.371 50.1133C121.582 49.7852 121.688 49.3867 121.688 48.918C121.688 48.3867 121.586 47.957 121.383 47.6289C121.188 47.3008 120.879 47.0625 120.457 46.9141C120.043 46.7656 119.508 46.6914 118.852 46.6914H116.414V61H112.898V43.9375H118.852C119.844 43.9375 120.73 44.0312 121.512 44.2188C122.301 44.4062 122.969 44.6914 123.516 45.0742C124.062 45.457 124.48 45.9414 124.77 46.5273C125.059 47.1055 125.203 47.793 125.203 48.5898C125.203 49.293 125.043 49.9414 124.723 50.5352C124.41 51.1289 123.914 51.6133 123.234 51.9883C122.562 52.3633 121.684 52.5703 120.598 52.6094L119.578 53.5117ZM119.426 61H114.234L115.605 58.2578H119.426C120.043 58.2578 120.547 58.1602 120.938 57.9648C121.328 57.7617 121.617 57.4883 121.805 57.1445C121.992 56.8008 122.086 56.4062 122.086 55.9609C122.086 55.4609 122 55.0273 121.828 54.6602C121.664 54.293 121.398 54.0117 121.031 53.8164C120.664 53.6133 120.18 53.5117 119.578 53.5117H116.191L116.215 51.0977H120.434L121.242 52.0469C122.281 52.0312 123.117 52.2148 123.75 52.5977C124.391 52.9727 124.855 53.4609 125.145 54.0625C125.441 54.6641 125.59 55.3086 125.59 55.9961C125.59 57.0898 125.352 58.0117 124.875 58.7617C124.398 59.5039 123.699 60.0625 122.777 60.4375C121.863 60.8125 120.746 61 119.426 61ZM131.391 51.0859V61H128.016V48.3203H131.191L131.391 51.0859ZM135.211 48.2383L135.152 51.3672C134.988 51.3438 134.789 51.3242 134.555 51.3086C134.328 51.2852 134.121 51.2734 133.934 51.2734C133.457 51.2734 133.043 51.3359 132.691 51.4609C132.348 51.5781 132.059 51.7539 131.824 51.9883C131.598 52.2227 131.426 52.5078 131.309 52.8438C131.199 53.1797 131.137 53.5625 131.121 53.9922L130.441 53.7812C130.441 52.9609 130.523 52.207 130.688 51.5195C130.852 50.8242 131.09 50.2188 131.402 49.7031C131.723 49.1875 132.113 48.7891 132.574 48.5078C133.035 48.2266 133.562 48.0859 134.156 48.0859C134.344 48.0859 134.535 48.1016 134.73 48.1328C134.926 48.1562 135.086 48.1914 135.211 48.2383ZM142.406 61.2344C141.422 61.2344 140.539 61.0781 139.758 60.7656C138.977 60.4453 138.312 60.0039 137.766 59.4414C137.227 58.8789 136.812 58.2266 136.523 57.4844C136.234 56.7344 136.09 55.9375 136.09 55.0938V54.625C136.09 53.6641 136.227 52.7852 136.5 51.9883C136.773 51.1914 137.164 50.5 137.672 49.9141C138.188 49.3281 138.812 48.8789 139.547 48.5664C140.281 48.2461 141.109 48.0859 142.031 48.0859C142.93 48.0859 143.727 48.2344 144.422 48.5312C145.117 48.8281 145.699 49.25 146.168 49.7969C146.645 50.3438 147.004 51 147.246 51.7656C147.488 52.5234 147.609 53.3672 147.609 54.2969V55.7031H137.531V53.4531H144.293V53.1953C144.293 52.7266 144.207 52.3086 144.035 51.9414C143.871 51.5664 143.621 51.2695 143.285 51.0508C142.949 50.832 142.52 50.7227 141.996 50.7227C141.551 50.7227 141.168 50.8203 140.848 51.0156C140.527 51.2109 140.266 51.4844 140.062 51.8359C139.867 52.1875 139.719 52.6016 139.617 53.0781C139.523 53.5469 139.477 54.0625 139.477 54.625V55.0938C139.477 55.6016 139.547 56.0703 139.688 56.5C139.836 56.9297 140.043 57.3008 140.309 57.6133C140.582 57.9258 140.91 58.168 141.293 58.3398C141.684 58.5117 142.125 58.5977 142.617 58.5977C143.227 58.5977 143.793 58.4805 144.316 58.2461C144.848 58.0039 145.305 57.6406 145.688 57.1562L147.328 58.9375C147.062 59.3203 146.699 59.6875 146.238 60.0391C145.785 60.3906 145.238 60.6797 144.598 60.9062C143.957 61.125 143.227 61.2344 142.406 61.2344ZM156.375 58.1406V52.4922C156.375 52.0859 156.309 51.7383 156.176 51.4492C156.043 51.1523 155.836 50.9219 155.555 50.7578C155.281 50.5938 154.926 50.5117 154.488 50.5117C154.113 50.5117 153.789 50.5781 153.516 50.7109C153.242 50.8359 153.031 51.0195 152.883 51.2617C152.734 51.4961 152.66 51.7734 152.66 52.0938H149.285C149.285 51.5547 149.41 51.043 149.66 50.5586C149.91 50.0742 150.273 49.6484 150.75 49.2812C151.227 48.9062 151.793 48.6133 152.449 48.4023C153.113 48.1914 153.855 48.0859 154.676 48.0859C155.66 48.0859 156.535 48.25 157.301 48.5781C158.066 48.9062 158.668 49.3984 159.105 50.0547C159.551 50.7109 159.773 51.5312 159.773 52.5156V57.9414C159.773 58.6367 159.816 59.207 159.902 59.6523C159.988 60.0898 160.113 60.4727 160.277 60.8008V61H156.867C156.703 60.6562 156.578 60.2266 156.492 59.7109C156.414 59.1875 156.375 58.6641 156.375 58.1406ZM156.82 53.2773L156.844 55.1875H154.957C154.512 55.1875 154.125 55.2383 153.797 55.3398C153.469 55.4414 153.199 55.5859 152.988 55.7734C152.777 55.9531 152.621 56.1641 152.52 56.4062C152.426 56.6484 152.379 56.9141 152.379 57.2031C152.379 57.4922 152.445 57.7539 152.578 57.9883C152.711 58.2148 152.902 58.3945 153.152 58.5273C153.402 58.6523 153.695 58.7148 154.031 58.7148C154.539 58.7148 154.98 58.6133 155.355 58.4102C155.73 58.207 156.02 57.957 156.223 57.6602C156.434 57.3633 156.543 57.082 156.551 56.8164L157.441 58.2461C157.316 58.5664 157.145 58.8984 156.926 59.2422C156.715 59.5859 156.445 59.9102 156.117 60.2148C155.789 60.5117 155.395 60.7578 154.934 60.9531C154.473 61.1406 153.926 61.2344 153.293 61.2344C152.488 61.2344 151.758 61.0742 151.102 60.7539C150.453 60.4258 149.938 59.9766 149.555 59.4062C149.18 58.8281 148.992 58.1719 148.992 57.4375C148.992 56.7734 149.117 56.1836 149.367 55.668C149.617 55.1523 149.984 54.7188 150.469 54.3672C150.961 54.0078 151.574 53.7383 152.309 53.5586C153.043 53.3711 153.895 53.2773 154.863 53.2773H156.82ZM168.586 48.3203V50.7109H161.203V48.3203H168.586ZM163.031 45.1914H166.406V57.1797C166.406 57.5469 166.453 57.8281 166.547 58.0234C166.648 58.2188 166.797 58.3555 166.992 58.4336C167.188 58.5039 167.434 58.5391 167.73 58.5391C167.941 58.5391 168.129 58.5312 168.293 58.5156C168.465 58.4922 168.609 58.4688 168.727 58.4453L168.738 60.9297C168.449 61.0234 168.137 61.0977 167.801 61.1523C167.465 61.207 167.094 61.2344 166.688 61.2344C165.945 61.2344 165.297 61.1133 164.742 60.8711C164.195 60.6211 163.773 60.2227 163.477 59.6758C163.18 59.1289 163.031 58.4102 163.031 57.5195V45.1914ZM173.801 43V61H170.426V43H173.801ZM173.32 54.2148H172.395C172.402 53.332 172.52 52.5195 172.746 51.7773C172.973 51.0273 173.297 50.3789 173.719 49.832C174.141 49.2773 174.645 48.8477 175.23 48.543C175.824 48.2383 176.48 48.0859 177.199 48.0859C177.824 48.0859 178.391 48.1758 178.898 48.3555C179.414 48.5273 179.855 48.8086 180.223 49.1992C180.598 49.582 180.887 50.0859 181.09 50.7109C181.293 51.3359 181.395 52.0938 181.395 52.9844V61H177.996V52.9609C177.996 52.3984 177.914 51.957 177.75 51.6367C177.594 51.3086 177.363 51.0781 177.059 50.9453C176.762 50.8047 176.395 50.7344 175.957 50.7344C175.473 50.7344 175.059 50.8242 174.715 51.0039C174.379 51.1836 174.109 51.4336 173.906 51.7539C173.703 52.0664 173.555 52.4336 173.461 52.8555C173.367 53.2773 173.32 53.7305 173.32 54.2148ZM189.797 61.2344C188.812 61.2344 187.93 61.0781 187.148 60.7656C186.367 60.4453 185.703 60.0039 185.156 59.4414C184.617 58.8789 184.203 58.2266 183.914 57.4844C183.625 56.7344 183.48 55.9375 183.48 55.0938V54.625C183.48 53.6641 183.617 52.7852 183.891 51.9883C184.164 51.1914 184.555 50.5 185.062 49.9141C185.578 49.3281 186.203 48.8789 186.938 48.5664C187.672 48.2461 188.5 48.0859 189.422 48.0859C190.32 48.0859 191.117 48.2344 191.812 48.5312C192.508 48.8281 193.09 49.25 193.559 49.7969C194.035 50.3438 194.395 51 194.637 51.7656C194.879 52.5234 195 53.3672 195 54.2969V55.7031H184.922V53.4531H191.684V53.1953C191.684 52.7266 191.598 52.3086 191.426 51.9414C191.262 51.5664 191.012 51.2695 190.676 51.0508C190.34 50.832 189.91 50.7227 189.387 50.7227C188.941 50.7227 188.559 50.8203 188.238 51.0156C187.918 51.2109 187.656 51.4844 187.453 51.8359C187.258 52.1875 187.109 52.6016 187.008 53.0781C186.914 53.5469 186.867 54.0625 186.867 54.625V55.0938C186.867 55.6016 186.938 56.0703 187.078 56.5C187.227 56.9297 187.434 57.3008 187.699 57.6133C187.973 57.9258 188.301 58.168 188.684 58.3398C189.074 58.5117 189.516 58.5977 190.008 58.5977C190.617 58.5977 191.184 58.4805 191.707 58.2461C192.238 58.0039 192.695 57.6406 193.078 57.1562L194.719 58.9375C194.453 59.3203 194.09 59.6875 193.629 60.0391C193.176 60.3906 192.629 60.6797 191.988 60.9062C191.348 61.125 190.617 61.2344 189.797 61.2344ZM201.246 58.293L204.645 43.9375H206.543L206.977 46.3281L203.355 61H201.316L201.246 58.293ZM199.5 43.9375L202.312 58.293L202.078 61H199.805L196.02 43.9375H199.5ZM209.965 58.2344L212.742 43.9375H216.223L212.449 61H210.176L209.965 58.2344ZM207.609 43.9375L211.031 58.3516L210.938 61H208.898L205.254 46.3164L205.723 43.9375H207.609ZM221.484 48.3203V61H218.098V48.3203H221.484ZM217.887 45.0156C217.887 44.5234 218.059 44.1172 218.402 43.7969C218.746 43.4766 219.207 43.3164 219.785 43.3164C220.355 43.3164 220.812 43.4766 221.156 43.7969C221.508 44.1172 221.684 44.5234 221.684 45.0156C221.684 45.5078 221.508 45.9141 221.156 46.2344C220.812 46.5547 220.355 46.7148 219.785 46.7148C219.207 46.7148 218.746 46.5547 218.402 46.2344C218.059 45.9141 217.887 45.5078 217.887 45.0156ZM231.129 57.4961C231.129 57.2539 231.059 57.0352 230.918 56.8398C230.777 56.6445 230.516 56.4648 230.133 56.3008C229.758 56.1289 229.215 55.9727 228.504 55.832C227.863 55.6914 227.266 55.5156 226.711 55.3047C226.164 55.0859 225.688 54.8242 225.281 54.5195C224.883 54.2148 224.57 53.8555 224.344 53.4414C224.117 53.0195 224.004 52.5391 224.004 52C224.004 51.4688 224.117 50.9688 224.344 50.5C224.578 50.0312 224.91 49.6172 225.34 49.2578C225.777 48.8906 226.309 48.6055 226.934 48.4023C227.566 48.1914 228.277 48.0859 229.066 48.0859C230.168 48.0859 231.113 48.2617 231.902 48.6133C232.699 48.9648 233.309 49.4492 233.73 50.0664C234.16 50.6758 234.375 51.3711 234.375 52.1523H231C231 51.8242 230.93 51.5312 230.789 51.2734C230.656 51.0078 230.445 50.8008 230.156 50.6523C229.875 50.4961 229.508 50.418 229.055 50.418C228.68 50.418 228.355 50.4844 228.082 50.6172C227.809 50.7422 227.598 50.9141 227.449 51.1328C227.309 51.3438 227.238 51.5781 227.238 51.8359C227.238 52.0312 227.277 52.207 227.355 52.3633C227.441 52.5117 227.578 52.6484 227.766 52.7734C227.953 52.8984 228.195 53.0156 228.492 53.125C228.797 53.2266 229.172 53.3203 229.617 53.4062C230.531 53.5938 231.348 53.8398 232.066 54.1445C232.785 54.4414 233.355 54.8477 233.777 55.3633C234.199 55.8711 234.41 56.5391 234.41 57.3672C234.41 57.9297 234.285 58.4453 234.035 58.9141C233.785 59.3828 233.426 59.793 232.957 60.1445C232.488 60.4883 231.926 60.7578 231.27 60.9531C230.621 61.1406 229.891 61.2344 229.078 61.2344C227.898 61.2344 226.898 61.0234 226.078 60.6016C225.266 60.1797 224.648 59.6445 224.227 58.9961C223.812 58.3398 223.605 57.668 223.605 56.9805H226.805C226.82 57.4414 226.938 57.8125 227.156 58.0938C227.383 58.375 227.668 58.5781 228.012 58.7031C228.363 58.8281 228.742 58.8906 229.148 58.8906C229.586 58.8906 229.949 58.832 230.238 58.7148C230.527 58.5898 230.746 58.4258 230.895 58.2227C231.051 58.0117 231.129 57.7695 231.129 57.4961ZM242.438 61.2344C241.453 61.2344 240.57 61.0781 239.789 60.7656C239.008 60.4453 238.344 60.0039 237.797 59.4414C237.258 58.8789 236.844 58.2266 236.555 57.4844C236.266 56.7344 236.121 55.9375 236.121 55.0938V54.625C236.121 53.6641 236.258 52.7852 236.531 51.9883C236.805 51.1914 237.195 50.5 237.703 49.9141C238.219 49.3281 238.844 48.8789 239.578 48.5664C240.312 48.2461 241.141 48.0859 242.062 48.0859C242.961 48.0859 243.758 48.2344 244.453 48.5312C245.148 48.8281 245.73 49.25 246.199 49.7969C246.676 50.3438 247.035 51 247.277 51.7656C247.52 52.5234 247.641 53.3672 247.641 54.2969V55.7031H237.562V53.4531H244.324V53.1953C244.324 52.7266 244.238 52.3086 244.066 51.9414C243.902 51.5664 243.652 51.2695 243.316 51.0508C242.98 50.832 242.551 50.7227 242.027 50.7227C241.582 50.7227 241.199 50.8203 240.879 51.0156C240.559 51.2109 240.297 51.4844 240.094 51.8359C239.898 52.1875 239.75 52.6016 239.648 53.0781C239.555 53.5469 239.508 54.0625 239.508 54.625V55.0938C239.508 55.6016 239.578 56.0703 239.719 56.5C239.867 56.9297 240.074 57.3008 240.34 57.6133C240.613 57.9258 240.941 58.168 241.324 58.3398C241.715 58.5117 242.156 58.5977 242.648 58.5977C243.258 58.5977 243.824 58.4805 244.348 58.2461C244.879 58.0039 245.336 57.6406 245.719 57.1562L247.359 58.9375C247.094 59.3203 246.73 59.6875 246.27 60.0391C245.816 60.3906 245.27 60.6797 244.629 60.9062C243.988 61.125 243.258 61.2344 242.438 61.2344Z" fill="#888888"/>
<path d="M114.117 84.875H122.344V107.164C122.344 109.82 121.789 112.07 120.68 113.914C119.57 115.742 118.016 117.125 116.016 118.062C114.016 119 111.664 119.469 108.961 119.469C106.289 119.469 103.938 119 101.906 118.062C99.8906 117.125 98.3125 115.742 97.1719 113.914C96.0469 112.07 95.4844 109.82 95.4844 107.164V84.875H103.734V107.164C103.734 108.57 103.938 109.719 104.344 110.609C104.75 111.484 105.344 112.125 106.125 112.531C106.906 112.938 107.852 113.141 108.961 113.141C110.086 113.141 111.031 112.938 111.797 112.531C112.562 112.125 113.141 111.484 113.531 110.609C113.922 109.719 114.117 108.57 114.117 107.164V84.875ZM136.266 84.875V119H128.062V84.875H136.266ZM172.523 84.875H180.75V107.164C180.75 109.82 180.195 112.07 179.086 113.914C177.977 115.742 176.422 117.125 174.422 118.062C172.422 119 170.07 119.469 167.367 119.469C164.695 119.469 162.344 119 160.312 118.062C158.297 117.125 156.719 115.742 155.578 113.914C154.453 112.07 153.891 109.82 153.891 107.164V84.875H162.141V107.164C162.141 108.57 162.344 109.719 162.75 110.609C163.156 111.484 163.75 112.125 164.531 112.531C165.312 112.938 166.258 113.141 167.367 113.141C168.492 113.141 169.438 112.938 170.203 112.531C170.969 112.125 171.547 111.484 171.938 110.609C172.328 109.719 172.523 108.57 172.523 107.164V84.875ZM193.078 84.875L198.656 96.2188L204.234 84.875H213.609L204.094 101.797L213.867 119H204.398L198.656 107.445L192.914 119H183.422L193.219 101.797L183.68 84.875H193.078Z" fill="black"/>
<path d="M1134 0H1348C1356.28 0 1363 6.71573 1363 15V148C1363 156.284 1356.28 163 1348 163H1134V0Z" fill="#FEDFD4"/>
<path d="M1248.5 111.917C1244.51 111.917 1240.55 111.13 1236.86 109.601C1233.17 108.073 1229.82 105.832 1226.99 103.008C1221.29 97.3036 1218.08 89.567 1218.08 81.5C1218.08 73.433 1221.29 65.6964 1226.99 59.9922C1232.7 54.2879 1240.43 51.0833 1248.5 51.0833C1265.23 51.0833 1278.92 63.25 1278.92 78.4583C1278.92 83.2985 1276.99 87.9405 1273.57 91.363C1270.15 94.7856 1265.51 96.7083 1260.67 96.7083H1255.19C1254.28 96.7083 1253.67 97.3167 1253.67 98.2292C1253.67 98.5333 1253.97 98.8375 1253.97 99.1417C1255.19 100.662 1255.8 102.487 1255.8 104.312C1256.1 108.571 1252.76 111.917 1248.5 111.917ZM1248.5 57.1667C1242.05 57.1667 1235.86 59.7303 1231.29 64.2937C1226.73 68.8571 1224.17 75.0464 1224.17 81.5C1224.17 87.9536 1226.73 94.1429 1231.29 98.7063C1235.86 103.27 1242.05 105.833 1248.5 105.833C1249.41 105.833 1250.02 105.225 1250.02 104.312C1250.02 103.704 1249.72 103.4 1249.72 103.096C1248.5 101.575 1247.89 100.054 1247.89 98.2292C1247.89 93.9708 1251.24 90.625 1255.5 90.625H1260.67C1263.89 90.625 1266.99 89.3432 1269.27 87.0615C1271.55 84.7798 1272.83 81.6851 1272.83 78.4583C1272.83 66.5958 1261.88 57.1667 1248.5 57.1667ZM1231.77 75.4167C1234.2 75.4167 1236.33 77.5458 1236.33 79.9792C1236.33 82.4125 1234.2 84.5417 1231.77 84.5417C1229.34 84.5417 1227.21 82.4125 1227.21 79.9792C1227.21 77.5458 1229.34 75.4167 1231.77 75.4167ZM1240.9 63.25C1243.33 63.25 1245.46 65.3792 1245.46 67.8125C1245.46 70.2458 1243.33 72.375 1240.9 72.375C1238.46 72.375 1236.33 70.2458 1236.33 67.8125C1236.33 65.3792 1238.46 63.25 1240.9 63.25ZM1256.1 63.25C1258.54 63.25 1260.67 65.3792 1260.67 67.8125C1260.67 70.2458 1258.54 72.375 1256.1 72.375C1253.67 72.375 1251.54 70.2458 1251.54 67.8125C1251.54 65.3792 1253.67 63.25 1256.1 63.25ZM1265.23 75.4167C1267.66 75.4167 1269.79 77.5458 1269.79 79.9792C1269.79 82.4125 1267.66 84.5417 1265.23 84.5417C1262.8 84.5417 1260.67 82.4125 1260.67 79.9792C1260.67 77.5458 1262.8 75.4167 1265.23 75.4167Z" fill="white"/>
</svg>
