<svg width="1363" height="163" viewBox="0 0 1363 163" fill="none" xmlns="http://www.w3.org/2000/svg">
<path d="M0 15C0 6.71573 6.71573 0 15 0H37V163H15C6.71573 163 0 156.284 0 148V15Z" fill="#424242"/>
<rect width="1097" height="163" transform="translate(37)" fill="#F0F0F0"/>
<path d="M101.906 53.9219L94.3945 51.2383V48.0859L104.602 52.375V54.6367L101.906 53.9219ZM94.3945 56.1719L101.918 53.4297L104.602 52.7852V55.0352L94.3945 59.3242V56.1719ZM119.578 53.5117H115.195L115.172 51.0977H118.852C119.5 51.0977 120.031 51.0156 120.445 50.8516C120.859 50.6797 121.168 50.4336 121.371 50.1133C121.582 49.7852 121.688 49.3867 121.688 48.918C121.688 48.3867 121.586 47.957 121.383 47.6289C121.188 47.3008 120.879 47.0625 120.457 46.9141C120.043 46.7656 119.508 46.6914 118.852 46.6914H116.414V61H112.898V43.9375H118.852C119.844 43.9375 120.73 44.0312 121.512 44.2188C122.301 44.4062 122.969 44.6914 123.516 45.0742C124.062 45.457 124.48 45.9414 124.77 46.5273C125.059 47.1055 125.203 47.793 125.203 48.5898C125.203 49.293 125.043 49.9414 124.723 50.5352C124.41 51.1289 123.914 51.6133 123.234 51.9883C122.562 52.3633 121.684 52.5703 120.598 52.6094L119.578 53.5117ZM119.426 61H114.234L115.605 58.2578H119.426C120.043 58.2578 120.547 58.1602 120.938 57.9648C121.328 57.7617 121.617 57.4883 121.805 57.1445C121.992 56.8008 122.086 56.4062 122.086 55.9609C122.086 55.4609 122 55.0273 121.828 54.6602C121.664 54.293 121.398 54.0117 121.031 53.8164C120.664 53.6133 120.18 53.5117 119.578 53.5117H116.191L116.215 51.0977H120.434L121.242 52.0469C122.281 52.0312 123.117 52.2148 123.75 52.5977C124.391 52.9727 124.855 53.4609 125.145 54.0625C125.441 54.6641 125.59 55.3086 125.59 55.9961C125.59 57.0898 125.352 58.0117 124.875 58.7617C124.398 59.5039 123.699 60.0625 122.777 60.4375C121.863 60.8125 120.746 61 119.426 61ZM131.391 51.0859V61H128.016V48.3203H131.191L131.391 51.0859ZM135.211 48.2383L135.152 51.3672C134.988 51.3438 134.789 51.3242 134.555 51.3086C134.328 51.2852 134.121 51.2734 133.934 51.2734C133.457 51.2734 133.043 51.3359 132.691 51.4609C132.348 51.5781 132.059 51.7539 131.824 51.9883C131.598 52.2227 131.426 52.5078 131.309 52.8438C131.199 53.1797 131.137 53.5625 131.121 53.9922L130.441 53.7812C130.441 52.9609 130.523 52.207 130.688 51.5195C130.852 50.8242 131.09 50.2188 131.402 49.7031C131.723 49.1875 132.113 48.7891 132.574 48.5078C133.035 48.2266 133.562 48.0859 134.156 48.0859C134.344 48.0859 134.535 48.1016 134.73 48.1328C134.926 48.1562 135.086 48.1914 135.211 48.2383ZM142.406 61.2344C141.422 61.2344 140.539 61.0781 139.758 60.7656C138.977 60.4453 138.312 60.0039 137.766 59.4414C137.227 58.8789 136.812 58.2266 136.523 57.4844C136.234 56.7344 136.09 55.9375 136.09 55.0938V54.625C136.09 53.6641 136.227 52.7852 136.5 51.9883C136.773 51.1914 137.164 50.5 137.672 49.9141C138.188 49.3281 138.812 48.8789 139.547 48.5664C140.281 48.2461 141.109 48.0859 142.031 48.0859C142.93 48.0859 143.727 48.2344 144.422 48.5312C145.117 48.8281 145.699 49.25 146.168 49.7969C146.645 50.3438 147.004 51 147.246 51.7656C147.488 52.5234 147.609 53.3672 147.609 54.2969V55.7031H137.531V53.4531H144.293V53.1953C144.293 52.7266 144.207 52.3086 144.035 51.9414C143.871 51.5664 143.621 51.2695 143.285 51.0508C142.949 50.832 142.52 50.7227 141.996 50.7227C141.551 50.7227 141.168 50.8203 140.848 51.0156C140.527 51.2109 140.266 51.4844 140.062 51.8359C139.867 52.1875 139.719 52.6016 139.617 53.0781C139.523 53.5469 139.477 54.0625 139.477 54.625V55.0938C139.477 55.6016 139.547 56.0703 139.688 56.5C139.836 56.9297 140.043 57.3008 140.309 57.6133C140.582 57.9258 140.91 58.168 141.293 58.3398C141.684 58.5117 142.125 58.5977 142.617 58.5977C143.227 58.5977 143.793 58.4805 144.316 58.2461C144.848 58.0039 145.305 57.6406 145.688 57.1562L147.328 58.9375C147.062 59.3203 146.699 59.6875 146.238 60.0391C145.785 60.3906 145.238 60.6797 144.598 60.9062C143.957 61.125 143.227 61.2344 142.406 61.2344ZM156.375 58.1406V52.4922C156.375 52.0859 156.309 51.7383 156.176 51.4492C156.043 51.1523 155.836 50.9219 155.555 50.7578C155.281 50.5938 154.926 50.5117 154.488 50.5117C154.113 50.5117 153.789 50.5781 153.516 50.7109C153.242 50.8359 153.031 51.0195 152.883 51.2617C152.734 51.4961 152.66 51.7734 152.66 52.0938H149.285C149.285 51.5547 149.41 51.043 149.66 50.5586C149.91 50.0742 150.273 49.6484 150.75 49.2812C151.227 48.9062 151.793 48.6133 152.449 48.4023C153.113 48.1914 153.855 48.0859 154.676 48.0859C155.66 48.0859 156.535 48.25 157.301 48.5781C158.066 48.9062 158.668 49.3984 159.105 50.0547C159.551 50.7109 159.773 51.5312 159.773 52.5156V57.9414C159.773 58.6367 159.816 59.207 159.902 59.6523C159.988 60.0898 160.113 60.4727 160.277 60.8008V61H156.867C156.703 60.6562 156.578 60.2266 156.492 59.7109C156.414 59.1875 156.375 58.6641 156.375 58.1406ZM156.82 53.2773L156.844 55.1875H154.957C154.512 55.1875 154.125 55.2383 153.797 55.3398C153.469 55.4414 153.199 55.5859 152.988 55.7734C152.777 55.9531 152.621 56.1641 152.52 56.4062C152.426 56.6484 152.379 56.9141 152.379 57.2031C152.379 57.4922 152.445 57.7539 152.578 57.9883C152.711 58.2148 152.902 58.3945 153.152 58.5273C153.402 58.6523 153.695 58.7148 154.031 58.7148C154.539 58.7148 154.98 58.6133 155.355 58.4102C155.73 58.207 156.02 57.957 156.223 57.6602C156.434 57.3633 156.543 57.082 156.551 56.8164L157.441 58.2461C157.316 58.5664 157.145 58.8984 156.926 59.2422C156.715 59.5859 156.445 59.9102 156.117 60.2148C155.789 60.5117 155.395 60.7578 154.934 60.9531C154.473 61.1406 153.926 61.2344 153.293 61.2344C152.488 61.2344 151.758 61.0742 151.102 60.7539C150.453 60.4258 149.938 59.9766 149.555 59.4062C149.18 58.8281 148.992 58.1719 148.992 57.4375C148.992 56.7734 149.117 56.1836 149.367 55.668C149.617 55.1523 149.984 54.7188 150.469 54.3672C150.961 54.0078 151.574 53.7383 152.309 53.5586C153.043 53.3711 153.895 53.2773 154.863 53.2773H156.82ZM168.586 48.3203V50.7109H161.203V48.3203H168.586ZM163.031 45.1914H166.406V57.1797C166.406 57.5469 166.453 57.8281 166.547 58.0234C166.648 58.2188 166.797 58.3555 166.992 58.4336C167.188 58.5039 167.434 58.5391 167.73 58.5391C167.941 58.5391 168.129 58.5312 168.293 58.5156C168.465 58.4922 168.609 58.4688 168.727 58.4453L168.738 60.9297C168.449 61.0234 168.137 61.0977 167.801 61.1523C167.465 61.207 167.094 61.2344 166.688 61.2344C165.945 61.2344 165.297 61.1133 164.742 60.8711C164.195 60.6211 163.773 60.2227 163.477 59.6758C163.18 59.1289 163.031 58.4102 163.031 57.5195V45.1914ZM173.801 43V61H170.426V43H173.801ZM173.32 54.2148H172.395C172.402 53.332 172.52 52.5195 172.746 51.7773C172.973 51.0273 173.297 50.3789 173.719 49.832C174.141 49.2773 174.645 48.8477 175.23 48.543C175.824 48.2383 176.48 48.0859 177.199 48.0859C177.824 48.0859 178.391 48.1758 178.898 48.3555C179.414 48.5273 179.855 48.8086 180.223 49.1992C180.598 49.582 180.887 50.0859 181.09 50.7109C181.293 51.3359 181.395 52.0938 181.395 52.9844V61H177.996V52.9609C177.996 52.3984 177.914 51.957 177.75 51.6367C177.594 51.3086 177.363 51.0781 177.059 50.9453C176.762 50.8047 176.395 50.7344 175.957 50.7344C175.473 50.7344 175.059 50.8242 174.715 51.0039C174.379 51.1836 174.109 51.4336 173.906 51.7539C173.703 52.0664 173.555 52.4336 173.461 52.8555C173.367 53.2773 173.32 53.7305 173.32 54.2148ZM189.797 61.2344C188.812 61.2344 187.93 61.0781 187.148 60.7656C186.367 60.4453 185.703 60.0039 185.156 59.4414C184.617 58.8789 184.203 58.2266 183.914 57.4844C183.625 56.7344 183.48 55.9375 183.48 55.0938V54.625C183.48 53.6641 183.617 52.7852 183.891 51.9883C184.164 51.1914 184.555 50.5 185.062 49.9141C185.578 49.3281 186.203 48.8789 186.938 48.5664C187.672 48.2461 188.5 48.0859 189.422 48.0859C190.32 48.0859 191.117 48.2344 191.812 48.5312C192.508 48.8281 193.09 49.25 193.559 49.7969C194.035 50.3438 194.395 51 194.637 51.7656C194.879 52.5234 195 53.3672 195 54.2969V55.7031H184.922V53.4531H191.684V53.1953C191.684 52.7266 191.598 52.3086 191.426 51.9414C191.262 51.5664 191.012 51.2695 190.676 51.0508C190.34 50.832 189.91 50.7227 189.387 50.7227C188.941 50.7227 188.559 50.8203 188.238 51.0156C187.918 51.2109 187.656 51.4844 187.453 51.8359C187.258 52.1875 187.109 52.6016 187.008 53.0781C186.914 53.5469 186.867 54.0625 186.867 54.625V55.0938C186.867 55.6016 186.938 56.0703 187.078 56.5C187.227 56.9297 187.434 57.3008 187.699 57.6133C187.973 57.9258 188.301 58.168 188.684 58.3398C189.074 58.5117 189.516 58.5977 190.008 58.5977C190.617 58.5977 191.184 58.4805 191.707 58.2461C192.238 58.0039 192.695 57.6406 193.078 57.1562L194.719 58.9375C194.453 59.3203 194.09 59.6875 193.629 60.0391C193.176 60.3906 192.629 60.6797 191.988 60.9062C191.348 61.125 190.617 61.2344 189.797 61.2344ZM201.246 58.293L204.645 43.9375H206.543L206.977 46.3281L203.355 61H201.316L201.246 58.293ZM199.5 43.9375L202.312 58.293L202.078 61H199.805L196.02 43.9375H199.5ZM209.965 58.2344L212.742 43.9375H216.223L212.449 61H210.176L209.965 58.2344ZM207.609 43.9375L211.031 58.3516L210.938 61H208.898L205.254 46.3164L205.723 43.9375H207.609ZM221.484 48.3203V61H218.098V48.3203H221.484ZM217.887 45.0156C217.887 44.5234 218.059 44.1172 218.402 43.7969C218.746 43.4766 219.207 43.3164 219.785 43.3164C220.355 43.3164 220.812 43.4766 221.156 43.7969C221.508 44.1172 221.684 44.5234 221.684 45.0156C221.684 45.5078 221.508 45.9141 221.156 46.2344C220.812 46.5547 220.355 46.7148 219.785 46.7148C219.207 46.7148 218.746 46.5547 218.402 46.2344C218.059 45.9141 217.887 45.5078 217.887 45.0156ZM231.129 57.4961C231.129 57.2539 231.059 57.0352 230.918 56.8398C230.777 56.6445 230.516 56.4648 230.133 56.3008C229.758 56.1289 229.215 55.9727 228.504 55.832C227.863 55.6914 227.266 55.5156 226.711 55.3047C226.164 55.0859 225.688 54.8242 225.281 54.5195C224.883 54.2148 224.57 53.8555 224.344 53.4414C224.117 53.0195 224.004 52.5391 224.004 52C224.004 51.4688 224.117 50.9688 224.344 50.5C224.578 50.0312 224.91 49.6172 225.34 49.2578C225.777 48.8906 226.309 48.6055 226.934 48.4023C227.566 48.1914 228.277 48.0859 229.066 48.0859C230.168 48.0859 231.113 48.2617 231.902 48.6133C232.699 48.9648 233.309 49.4492 233.73 50.0664C234.16 50.6758 234.375 51.3711 234.375 52.1523H231C231 51.8242 230.93 51.5312 230.789 51.2734C230.656 51.0078 230.445 50.8008 230.156 50.6523C229.875 50.4961 229.508 50.418 229.055 50.418C228.68 50.418 228.355 50.4844 228.082 50.6172C227.809 50.7422 227.598 50.9141 227.449 51.1328C227.309 51.3438 227.238 51.5781 227.238 51.8359C227.238 52.0312 227.277 52.207 227.355 52.3633C227.441 52.5117 227.578 52.6484 227.766 52.7734C227.953 52.8984 228.195 53.0156 228.492 53.125C228.797 53.2266 229.172 53.3203 229.617 53.4062C230.531 53.5938 231.348 53.8398 232.066 54.1445C232.785 54.4414 233.355 54.8477 233.777 55.3633C234.199 55.8711 234.41 56.5391 234.41 57.3672C234.41 57.9297 234.285 58.4453 234.035 58.9141C233.785 59.3828 233.426 59.793 232.957 60.1445C232.488 60.4883 231.926 60.7578 231.27 60.9531C230.621 61.1406 229.891 61.2344 229.078 61.2344C227.898 61.2344 226.898 61.0234 226.078 60.6016C225.266 60.1797 224.648 59.6445 224.227 58.9961C223.812 58.3398 223.605 57.668 223.605 56.9805H226.805C226.82 57.4414 226.938 57.8125 227.156 58.0938C227.383 58.375 227.668 58.5781 228.012 58.7031C228.363 58.8281 228.742 58.8906 229.148 58.8906C229.586 58.8906 229.949 58.832 230.238 58.7148C230.527 58.5898 230.746 58.4258 230.895 58.2227C231.051 58.0117 231.129 57.7695 231.129 57.4961ZM242.438 61.2344C241.453 61.2344 240.57 61.0781 239.789 60.7656C239.008 60.4453 238.344 60.0039 237.797 59.4414C237.258 58.8789 236.844 58.2266 236.555 57.4844C236.266 56.7344 236.121 55.9375 236.121 55.0938V54.625C236.121 53.6641 236.258 52.7852 236.531 51.9883C236.805 51.1914 237.195 50.5 237.703 49.9141C238.219 49.3281 238.844 48.8789 239.578 48.5664C240.312 48.2461 241.141 48.0859 242.062 48.0859C242.961 48.0859 243.758 48.2344 244.453 48.5312C245.148 48.8281 245.73 49.25 246.199 49.7969C246.676 50.3438 247.035 51 247.277 51.7656C247.52 52.5234 247.641 53.3672 247.641 54.2969V55.7031H237.562V53.4531H244.324V53.1953C244.324 52.7266 244.238 52.3086 244.066 51.9414C243.902 51.5664 243.652 51.2695 243.316 51.0508C242.98 50.832 242.551 50.7227 242.027 50.7227C241.582 50.7227 241.199 50.8203 240.879 51.0156C240.559 51.2109 240.297 51.4844 240.094 51.8359C239.898 52.1875 239.75 52.6016 239.648 53.0781C239.555 53.5469 239.508 54.0625 239.508 54.625V55.0938C239.508 55.6016 239.578 56.0703 239.719 56.5C239.867 56.9297 240.074 57.3008 240.34 57.6133C240.613 57.9258 240.941 58.168 241.324 58.3398C241.715 58.5117 242.156 58.5977 242.648 58.5977C243.258 58.5977 243.824 58.4805 244.348 58.2461C244.879 58.0039 245.336 57.6406 245.719 57.1562L247.359 58.9375C247.094 59.3203 246.73 59.6875 246.27 60.0391C245.816 60.3906 245.27 60.6797 244.629 60.9062C243.988 61.125 243.258 61.2344 242.438 61.2344Z" fill="#888888"/>
<path d="M106.688 119H99.1172L99.1641 112.672H106.688C108.25 112.672 109.57 112.297 110.648 111.547C111.742 110.797 112.57 109.68 113.133 108.195C113.711 106.695 114 104.852 114 102.664V101.188C114 99.5469 113.836 98.1094 113.508 96.875C113.195 95.625 112.727 94.5859 112.102 93.7578C111.477 92.9141 110.695 92.2812 109.758 91.8594C108.836 91.4375 107.773 91.2266 106.57 91.2266H98.9766V84.875H106.57C108.883 84.875 111 85.2734 112.922 86.0703C114.859 86.8516 116.531 87.9766 117.938 89.4453C119.359 90.8984 120.453 92.625 121.219 94.625C122 96.6094 122.391 98.8125 122.391 101.234V102.664C122.391 105.07 122 107.273 121.219 109.273C120.453 111.273 119.367 113 117.961 114.453C116.555 115.906 114.891 117.031 112.969 117.828C111.062 118.609 108.969 119 106.688 119ZM103.828 84.875V119H95.6016V84.875H103.828ZM139.477 112.625V102.172C139.477 101.453 139.375 100.836 139.172 100.32C138.969 99.8047 138.648 99.4062 138.211 99.125C137.773 98.8281 137.188 98.6797 136.453 98.6797C135.859 98.6797 135.352 98.7812 134.93 98.9844C134.508 99.1875 134.188 99.4922 133.969 99.8984C133.75 100.305 133.641 100.82 133.641 101.445H125.742C125.742 100.273 126 99.1875 126.516 98.1875C127.047 97.1719 127.797 96.2891 128.766 95.5391C129.75 94.7891 130.922 94.2109 132.281 93.8047C133.656 93.3828 135.188 93.1719 136.875 93.1719C138.891 93.1719 140.688 93.5078 142.266 94.1797C143.859 94.8516 145.117 95.8594 146.039 97.2031C146.961 98.5312 147.422 100.203 147.422 102.219V112.602C147.422 114.258 147.516 115.516 147.703 116.375C147.891 117.219 148.156 117.961 148.5 118.602V119H140.578C140.203 118.219 139.922 117.266 139.734 116.141C139.562 115 139.477 113.828 139.477 112.625ZM140.438 103.508L140.484 107.727H136.992C136.258 107.727 135.633 107.828 135.117 108.031C134.617 108.234 134.211 108.516 133.898 108.875C133.602 109.219 133.383 109.609 133.242 110.047C133.117 110.484 133.055 110.945 133.055 111.43C133.055 111.898 133.164 112.32 133.383 112.695C133.617 113.055 133.93 113.336 134.32 113.539C134.711 113.742 135.148 113.844 135.633 113.844C136.508 113.844 137.25 113.68 137.859 113.352C138.484 113.008 138.961 112.594 139.289 112.109C139.617 111.625 139.781 111.172 139.781 110.75L141.516 113.984C141.203 114.609 140.844 115.242 140.438 115.883C140.047 116.523 139.555 117.117 138.961 117.664C138.383 118.195 137.672 118.633 136.828 118.977C135.984 119.305 134.961 119.469 133.758 119.469C132.195 119.469 130.758 119.148 129.445 118.508C128.148 117.867 127.109 116.977 126.328 115.836C125.547 114.68 125.156 113.352 125.156 111.852C125.156 110.539 125.391 109.367 125.859 108.336C126.344 107.305 127.07 106.43 128.039 105.711C129.008 104.992 130.242 104.445 131.742 104.07C133.242 103.695 135.008 103.508 137.039 103.508H140.438ZM165.164 93.6406V99.125H149.883V93.6406H165.164ZM153.094 87.3359H160.992V110.727C160.992 111.398 161.07 111.922 161.227 112.297C161.383 112.656 161.648 112.914 162.023 113.07C162.414 113.211 162.93 113.281 163.57 113.281C164.023 113.281 164.398 113.273 164.695 113.258C164.992 113.227 165.273 113.188 165.539 113.141V118.789C164.867 119.008 164.164 119.172 163.43 119.281C162.695 119.406 161.914 119.469 161.086 119.469C159.398 119.469 157.953 119.203 156.75 118.672C155.562 118.141 154.656 117.305 154.031 116.164C153.406 115.023 153.094 113.539 153.094 111.711V87.3359ZM181.477 112.625V102.172C181.477 101.453 181.375 100.836 181.172 100.32C180.969 99.8047 180.648 99.4062 180.211 99.125C179.773 98.8281 179.188 98.6797 178.453 98.6797C177.859 98.6797 177.352 98.7812 176.93 98.9844C176.508 99.1875 176.188 99.4922 175.969 99.8984C175.75 100.305 175.641 100.82 175.641 101.445H167.742C167.742 100.273 168 99.1875 168.516 98.1875C169.047 97.1719 169.797 96.2891 170.766 95.5391C171.75 94.7891 172.922 94.2109 174.281 93.8047C175.656 93.3828 177.188 93.1719 178.875 93.1719C180.891 93.1719 182.688 93.5078 184.266 94.1797C185.859 94.8516 187.117 95.8594 188.039 97.2031C188.961 98.5312 189.422 100.203 189.422 102.219V112.602C189.422 114.258 189.516 115.516 189.703 116.375C189.891 117.219 190.156 117.961 190.5 118.602V119H182.578C182.203 118.219 181.922 117.266 181.734 116.141C181.562 115 181.477 113.828 181.477 112.625ZM182.438 103.508L182.484 107.727H178.992C178.258 107.727 177.633 107.828 177.117 108.031C176.617 108.234 176.211 108.516 175.898 108.875C175.602 109.219 175.383 109.609 175.242 110.047C175.117 110.484 175.055 110.945 175.055 111.43C175.055 111.898 175.164 112.32 175.383 112.695C175.617 113.055 175.93 113.336 176.32 113.539C176.711 113.742 177.148 113.844 177.633 113.844C178.508 113.844 179.25 113.68 179.859 113.352C180.484 113.008 180.961 112.594 181.289 112.109C181.617 111.625 181.781 111.172 181.781 110.75L183.516 113.984C183.203 114.609 182.844 115.242 182.438 115.883C182.047 116.523 181.555 117.117 180.961 117.664C180.383 118.195 179.672 118.633 178.828 118.977C177.984 119.305 176.961 119.469 175.758 119.469C174.195 119.469 172.758 119.148 171.445 118.508C170.148 117.867 169.109 116.977 168.328 115.836C167.547 114.68 167.156 113.352 167.156 111.852C167.156 110.539 167.391 109.367 167.859 108.336C168.344 107.305 169.07 106.43 170.039 105.711C171.008 104.992 172.242 104.445 173.742 104.07C175.242 103.695 177.008 103.508 179.039 103.508H182.438ZM214.008 115.906L220.805 84.875H224.859L227.062 87.5234L219.82 119H215.344L214.008 115.906ZM212.203 84.875L217.945 116.141L216.469 119H211.289L204.047 84.875H212.203ZM230.789 115.977L236.484 84.875H244.617L237.375 119H232.219L230.789 115.977ZM227.789 84.875L234.75 116.094L233.344 119H228.867L221.461 87.4766L223.758 84.875H227.789ZM259.852 112.625V102.172C259.852 101.453 259.75 100.836 259.547 100.32C259.344 99.8047 259.023 99.4062 258.586 99.125C258.148 98.8281 257.562 98.6797 256.828 98.6797C256.234 98.6797 255.727 98.7812 255.305 98.9844C254.883 99.1875 254.562 99.4922 254.344 99.8984C254.125 100.305 254.016 100.82 254.016 101.445H246.117C246.117 100.273 246.375 99.1875 246.891 98.1875C247.422 97.1719 248.172 96.2891 249.141 95.5391C250.125 94.7891 251.297 94.2109 252.656 93.8047C254.031 93.3828 255.562 93.1719 257.25 93.1719C259.266 93.1719 261.062 93.5078 262.641 94.1797C264.234 94.8516 265.492 95.8594 266.414 97.2031C267.336 98.5312 267.797 100.203 267.797 102.219V112.602C267.797 114.258 267.891 115.516 268.078 116.375C268.266 117.219 268.531 117.961 268.875 118.602V119H260.953C260.578 118.219 260.297 117.266 260.109 116.141C259.938 115 259.852 113.828 259.852 112.625ZM260.812 103.508L260.859 107.727H257.367C256.633 107.727 256.008 107.828 255.492 108.031C254.992 108.234 254.586 108.516 254.273 108.875C253.977 109.219 253.758 109.609 253.617 110.047C253.492 110.484 253.43 110.945 253.43 111.43C253.43 111.898 253.539 112.32 253.758 112.695C253.992 113.055 254.305 113.336 254.695 113.539C255.086 113.742 255.523 113.844 256.008 113.844C256.883 113.844 257.625 113.68 258.234 113.352C258.859 113.008 259.336 112.594 259.664 112.109C259.992 111.625 260.156 111.172 260.156 110.75L261.891 113.984C261.578 114.609 261.219 115.242 260.812 115.883C260.422 116.523 259.93 117.117 259.336 117.664C258.758 118.195 258.047 118.633 257.203 118.977C256.359 119.305 255.336 119.469 254.133 119.469C252.57 119.469 251.133 119.148 249.82 118.508C248.523 117.867 247.484 116.977 246.703 115.836C245.922 114.68 245.531 113.352 245.531 111.852C245.531 110.539 245.766 109.367 246.234 108.336C246.719 107.305 247.445 106.43 248.414 105.711C249.383 104.992 250.617 104.445 252.117 104.07C253.617 103.695 255.383 103.508 257.414 103.508H260.812ZM280.148 99.9219V119H272.25V93.6406H279.633L280.148 99.9219ZM287.648 93.4531L287.508 100.789C287.195 100.758 286.773 100.719 286.242 100.672C285.711 100.625 285.266 100.602 284.906 100.602C283.984 100.602 283.188 100.711 282.516 100.93C281.859 101.133 281.312 101.445 280.875 101.867C280.453 102.273 280.141 102.789 279.938 103.414C279.75 104.039 279.664 104.766 279.68 105.594L278.25 104.656C278.25 102.953 278.414 101.406 278.742 100.016C279.086 98.6094 279.57 97.3984 280.195 96.3828C280.82 95.3516 281.578 94.5625 282.469 94.0156C283.359 93.4531 284.359 93.1719 285.469 93.1719C285.859 93.1719 286.242 93.1953 286.617 93.2422C287.008 93.2891 287.352 93.3594 287.648 93.4531ZM302.18 119.469C300.117 119.469 298.273 119.148 296.648 118.508C295.023 117.852 293.648 116.953 292.523 115.812C291.414 114.672 290.562 113.359 289.969 111.875C289.391 110.391 289.102 108.82 289.102 107.164V106.273C289.102 104.414 289.359 102.695 289.875 101.117C290.391 99.5234 291.156 98.1328 292.172 96.9453C293.188 95.7578 294.461 94.8359 295.992 94.1797C297.523 93.5078 299.305 93.1719 301.336 93.1719C303.133 93.1719 304.742 93.4609 306.164 94.0391C307.586 94.6172 308.789 95.4453 309.773 96.5234C310.773 97.6016 311.531 98.9062 312.047 100.438C312.578 101.969 312.844 103.688 312.844 105.594V108.805H292.125V103.859H305.133V103.25C305.148 102.406 305 101.688 304.688 101.094C304.391 100.5 303.953 100.047 303.375 99.7344C302.797 99.4219 302.094 99.2656 301.266 99.2656C300.406 99.2656 299.695 99.4531 299.133 99.8281C298.586 100.203 298.156 100.719 297.844 101.375C297.547 102.016 297.336 102.758 297.211 103.602C297.086 104.445 297.023 105.336 297.023 106.273V107.164C297.023 108.102 297.148 108.953 297.398 109.719C297.664 110.484 298.039 111.141 298.523 111.688C299.023 112.219 299.617 112.633 300.305 112.93C301.008 113.227 301.805 113.375 302.695 113.375C303.773 113.375 304.836 113.172 305.883 112.766C306.93 112.359 307.828 111.688 308.578 110.75L312.164 115.016C311.648 115.75 310.914 116.461 309.961 117.148C309.023 117.836 307.898 118.398 306.586 118.836C305.273 119.258 303.805 119.469 302.18 119.469ZM323.789 83V119H315.891V83H323.789ZM322.852 105.453L321 105.5C321 103.719 321.219 102.078 321.656 100.578C322.094 99.0781 322.719 97.7734 323.531 96.6641C324.344 95.5547 325.32 94.6953 326.461 94.0859C327.602 93.4766 328.867 93.1719 330.258 93.1719C331.508 93.1719 332.648 93.3516 333.68 93.7109C334.727 94.0703 335.625 94.6484 336.375 95.4453C337.141 96.2422 337.727 97.2812 338.133 98.5625C338.555 99.8438 338.766 101.406 338.766 103.25V119H330.82V103.203C330.82 102.172 330.672 101.375 330.375 100.812C330.094 100.234 329.688 99.8359 329.156 99.6172C328.625 99.3828 327.977 99.2656 327.211 99.2656C326.289 99.2656 325.539 99.4219 324.961 99.7344C324.383 100.047 323.938 100.484 323.625 101.047C323.328 101.594 323.125 102.242 323.016 102.992C322.906 103.742 322.852 104.562 322.852 105.453ZM342.164 106.578V106.086C342.164 104.227 342.43 102.516 342.961 100.953C343.492 99.375 344.273 98.0078 345.305 96.8516C346.336 95.6953 347.609 94.7969 349.125 94.1562C350.641 93.5 352.391 93.1719 354.375 93.1719C356.375 93.1719 358.133 93.5 359.648 94.1562C361.18 94.7969 362.461 95.6953 363.492 96.8516C364.523 98.0078 365.305 99.375 365.836 100.953C366.367 102.516 366.633 104.227 366.633 106.086V106.578C366.633 108.422 366.367 110.133 365.836 111.711C365.305 113.273 364.523 114.641 363.492 115.812C362.461 116.969 361.188 117.867 359.672 118.508C358.156 119.148 356.406 119.469 354.422 119.469C352.438 119.469 350.68 119.148 349.148 118.508C347.617 117.867 346.336 116.969 345.305 115.812C344.273 114.641 343.492 113.273 342.961 111.711C342.43 110.133 342.164 108.422 342.164 106.578ZM350.062 106.086V106.578C350.062 107.531 350.133 108.422 350.273 109.25C350.414 110.078 350.648 110.805 350.977 111.43C351.305 112.039 351.75 112.516 352.312 112.859C352.875 113.203 353.578 113.375 354.422 113.375C355.25 113.375 355.938 113.203 356.484 112.859C357.047 112.516 357.492 112.039 357.82 111.43C358.148 110.805 358.383 110.078 358.523 109.25C358.664 108.422 358.734 107.531 358.734 106.578V106.086C358.734 105.164 358.664 104.297 358.523 103.484C358.383 102.656 358.148 101.93 357.82 101.305C357.492 100.664 357.047 100.164 356.484 99.8047C355.922 99.4453 355.219 99.2656 354.375 99.2656C353.547 99.2656 352.852 99.4453 352.289 99.8047C351.742 100.164 351.305 100.664 350.977 101.305C350.648 101.93 350.414 102.656 350.273 103.484C350.133 104.297 350.062 105.164 350.062 106.086ZM384.961 112.836V93.6406H392.883V119H385.477L384.961 112.836ZM385.711 107.68L387.773 107.633C387.773 109.336 387.57 110.914 387.164 112.367C386.758 113.805 386.156 115.055 385.359 116.117C384.578 117.18 383.609 118.008 382.453 118.602C381.312 119.18 379.992 119.469 378.492 119.469C377.242 119.469 376.094 119.297 375.047 118.953C374.016 118.594 373.125 118.039 372.375 117.289C371.625 116.523 371.039 115.547 370.617 114.359C370.211 113.156 370.008 111.719 370.008 110.047V93.6406H377.906V110.094C377.906 110.656 377.977 111.141 378.117 111.547C378.258 111.953 378.461 112.297 378.727 112.578C378.992 112.844 379.32 113.047 379.711 113.188C380.117 113.312 380.578 113.375 381.094 113.375C382.281 113.375 383.211 113.125 383.883 112.625C384.555 112.125 385.023 111.445 385.289 110.586C385.57 109.727 385.711 108.758 385.711 107.68ZM410.531 111.875C410.531 111.438 410.383 111.062 410.086 110.75C409.805 110.422 409.305 110.125 408.586 109.859C407.867 109.578 406.859 109.297 405.562 109.016C404.328 108.75 403.164 108.398 402.07 107.961C400.992 107.523 400.047 106.992 399.234 106.367C398.422 105.742 397.781 105 397.312 104.141C396.859 103.281 396.633 102.297 396.633 101.188C396.633 100.109 396.859 99.0938 397.312 98.1406C397.781 97.1719 398.461 96.3203 399.352 95.5859C400.258 94.8359 401.359 94.25 402.656 93.8281C403.953 93.3906 405.43 93.1719 407.086 93.1719C409.367 93.1719 411.336 93.5234 412.992 94.2266C414.648 94.9141 415.922 95.8828 416.812 97.1328C417.719 98.3672 418.172 99.7969 418.172 101.422H410.273C410.273 100.781 410.164 100.234 409.945 99.7812C409.742 99.3281 409.406 98.9844 408.938 98.75C408.469 98.5 407.844 98.375 407.062 98.375C406.516 98.375 406.016 98.4766 405.562 98.6797C405.125 98.8828 404.773 99.1641 404.508 99.5234C404.242 99.8828 404.109 100.305 404.109 100.789C404.109 101.133 404.188 101.445 404.344 101.727C404.516 101.992 404.773 102.242 405.117 102.477C405.461 102.695 405.898 102.898 406.43 103.086C406.961 103.258 407.602 103.414 408.352 103.555C410.055 103.867 411.648 104.312 413.133 104.891C414.617 105.469 415.82 106.289 416.742 107.352C417.68 108.414 418.148 109.844 418.148 111.641C418.148 112.766 417.891 113.805 417.375 114.758C416.859 115.695 416.117 116.523 415.148 117.242C414.18 117.945 413.016 118.492 411.656 118.883C410.297 119.273 408.766 119.469 407.062 119.469C404.641 119.469 402.594 119.039 400.922 118.18C399.25 117.305 397.984 116.211 397.125 114.898C396.281 113.57 395.859 112.227 395.859 110.867H403.219C403.25 111.648 403.438 112.289 403.781 112.789C404.141 113.289 404.617 113.656 405.211 113.891C405.805 114.125 406.492 114.242 407.273 114.242C407.992 114.242 408.586 114.141 409.055 113.938C409.539 113.734 409.906 113.461 410.156 113.117C410.406 112.758 410.531 112.344 410.531 111.875ZM434.133 119.469C432.07 119.469 430.227 119.148 428.602 118.508C426.977 117.852 425.602 116.953 424.477 115.812C423.367 114.672 422.516 113.359 421.922 111.875C421.344 110.391 421.055 108.82 421.055 107.164V106.273C421.055 104.414 421.312 102.695 421.828 101.117C422.344 99.5234 423.109 98.1328 424.125 96.9453C425.141 95.7578 426.414 94.8359 427.945 94.1797C429.477 93.5078 431.258 93.1719 433.289 93.1719C435.086 93.1719 436.695 93.4609 438.117 94.0391C439.539 94.6172 440.742 95.4453 441.727 96.5234C442.727 97.6016 443.484 98.9062 444 100.438C444.531 101.969 444.797 103.688 444.797 105.594V108.805H424.078V103.859H437.086V103.25C437.102 102.406 436.953 101.688 436.641 101.094C436.344 100.5 435.906 100.047 435.328 99.7344C434.75 99.4219 434.047 99.2656 433.219 99.2656C432.359 99.2656 431.648 99.4531 431.086 99.8281C430.539 100.203 430.109 100.719 429.797 101.375C429.5 102.016 429.289 102.758 429.164 103.602C429.039 104.445 428.977 105.336 428.977 106.273V107.164C428.977 108.102 429.102 108.953 429.352 109.719C429.617 110.484 429.992 111.141 430.477 111.688C430.977 112.219 431.57 112.633 432.258 112.93C432.961 113.227 433.758 113.375 434.648 113.375C435.727 113.375 436.789 113.172 437.836 112.766C438.883 112.359 439.781 111.688 440.531 110.75L444.117 115.016C443.602 115.75 442.867 116.461 441.914 117.148C440.977 117.836 439.852 118.398 438.539 118.836C437.227 119.258 435.758 119.469 434.133 119.469ZM471.422 119H463.852L463.898 112.672H471.422C472.984 112.672 474.305 112.297 475.383 111.547C476.477 110.797 477.305 109.68 477.867 108.195C478.445 106.695 478.734 104.852 478.734 102.664V101.188C478.734 99.5469 478.57 98.1094 478.242 96.875C477.93 95.625 477.461 94.5859 476.836 93.7578C476.211 92.9141 475.43 92.2812 474.492 91.8594C473.57 91.4375 472.508 91.2266 471.305 91.2266H463.711V84.875H471.305C473.617 84.875 475.734 85.2734 477.656 86.0703C479.594 86.8516 481.266 87.9766 482.672 89.4453C484.094 90.8984 485.188 92.625 485.953 94.625C486.734 96.6094 487.125 98.8125 487.125 101.234V102.664C487.125 105.07 486.734 107.273 485.953 109.273C485.188 111.273 484.102 113 482.695 114.453C481.289 115.906 479.625 117.031 477.703 117.828C475.797 118.609 473.703 119 471.422 119ZM468.562 84.875V119H460.336V84.875H468.562ZM503.32 119.469C501.258 119.469 499.414 119.148 497.789 118.508C496.164 117.852 494.789 116.953 493.664 115.812C492.555 114.672 491.703 113.359 491.109 111.875C490.531 110.391 490.242 108.82 490.242 107.164V106.273C490.242 104.414 490.5 102.695 491.016 101.117C491.531 99.5234 492.297 98.1328 493.312 96.9453C494.328 95.7578 495.602 94.8359 497.133 94.1797C498.664 93.5078 500.445 93.1719 502.477 93.1719C504.273 93.1719 505.883 93.4609 507.305 94.0391C508.727 94.6172 509.93 95.4453 510.914 96.5234C511.914 97.6016 512.672 98.9062 513.188 100.438C513.719 101.969 513.984 103.688 513.984 105.594V108.805H493.266V103.859H506.273V103.25C506.289 102.406 506.141 101.688 505.828 101.094C505.531 100.5 505.094 100.047 504.516 99.7344C503.938 99.4219 503.234 99.2656 502.406 99.2656C501.547 99.2656 500.836 99.4531 500.273 99.8281C499.727 100.203 499.297 100.719 498.984 101.375C498.688 102.016 498.477 102.758 498.352 103.602C498.227 104.445 498.164 105.336 498.164 106.273V107.164C498.164 108.102 498.289 108.953 498.539 109.719C498.805 110.484 499.18 111.141 499.664 111.688C500.164 112.219 500.758 112.633 501.445 112.93C502.148 113.227 502.945 113.375 503.836 113.375C504.914 113.375 505.977 113.172 507.023 112.766C508.07 112.359 508.969 111.688 509.719 110.75L513.305 115.016C512.789 115.75 512.055 116.461 511.102 117.148C510.164 117.836 509.039 118.398 507.727 118.836C506.414 119.258 504.945 119.469 503.32 119.469ZM530.484 111.875C530.484 111.438 530.336 111.062 530.039 110.75C529.758 110.422 529.258 110.125 528.539 109.859C527.82 109.578 526.812 109.297 525.516 109.016C524.281 108.75 523.117 108.398 522.023 107.961C520.945 107.523 520 106.992 519.188 106.367C518.375 105.742 517.734 105 517.266 104.141C516.812 103.281 516.586 102.297 516.586 101.188C516.586 100.109 516.812 99.0938 517.266 98.1406C517.734 97.1719 518.414 96.3203 519.305 95.5859C520.211 94.8359 521.312 94.25 522.609 93.8281C523.906 93.3906 525.383 93.1719 527.039 93.1719C529.32 93.1719 531.289 93.5234 532.945 94.2266C534.602 94.9141 535.875 95.8828 536.766 97.1328C537.672 98.3672 538.125 99.7969 538.125 101.422H530.227C530.227 100.781 530.117 100.234 529.898 99.7812C529.695 99.3281 529.359 98.9844 528.891 98.75C528.422 98.5 527.797 98.375 527.016 98.375C526.469 98.375 525.969 98.4766 525.516 98.6797C525.078 98.8828 524.727 99.1641 524.461 99.5234C524.195 99.8828 524.062 100.305 524.062 100.789C524.062 101.133 524.141 101.445 524.297 101.727C524.469 101.992 524.727 102.242 525.07 102.477C525.414 102.695 525.852 102.898 526.383 103.086C526.914 103.258 527.555 103.414 528.305 103.555C530.008 103.867 531.602 104.312 533.086 104.891C534.57 105.469 535.773 106.289 536.695 107.352C537.633 108.414 538.102 109.844 538.102 111.641C538.102 112.766 537.844 113.805 537.328 114.758C536.812 115.695 536.07 116.523 535.102 117.242C534.133 117.945 532.969 118.492 531.609 118.883C530.25 119.273 528.719 119.469 527.016 119.469C524.594 119.469 522.547 119.039 520.875 118.18C519.203 117.305 517.938 116.211 517.078 114.898C516.234 113.57 515.812 112.227 515.812 110.867H523.172C523.203 111.648 523.391 112.289 523.734 112.789C524.094 113.289 524.57 113.656 525.164 113.891C525.758 114.125 526.445 114.242 527.227 114.242C527.945 114.242 528.539 114.141 529.008 113.938C529.492 113.734 529.859 113.461 530.109 113.117C530.359 112.758 530.484 112.344 530.484 111.875ZM550.148 93.6406V119H542.227V93.6406H550.148ZM541.758 87.1016C541.758 85.9766 542.164 85.0547 542.977 84.3359C543.789 83.6172 544.844 83.2578 546.141 83.2578C547.438 83.2578 548.492 83.6172 549.305 84.3359C550.117 85.0547 550.523 85.9766 550.523 87.1016C550.523 88.2266 550.117 89.1484 549.305 89.8672C548.492 90.5859 547.438 90.9453 546.141 90.9453C544.844 90.9453 543.789 90.5859 542.977 89.8672C542.164 89.1484 541.758 88.2266 541.758 87.1016ZM570.961 93.6406H578.133V118.016C578.133 120.359 577.594 122.344 576.516 123.969C575.438 125.609 573.93 126.852 571.992 127.695C570.07 128.555 567.82 128.984 565.242 128.984C564.102 128.984 562.938 128.836 561.75 128.539C560.562 128.258 559.453 127.836 558.422 127.273C557.391 126.711 556.523 126.016 555.82 125.188L559.125 120.547C559.766 121.266 560.57 121.875 561.539 122.375C562.508 122.891 563.648 123.148 564.961 123.148C566.102 123.148 567.055 122.945 567.82 122.539C568.602 122.133 569.195 121.539 569.602 120.758C570.008 119.992 570.211 119.062 570.211 117.969V99.6406L570.961 93.6406ZM554.109 106.625V106.133C554.109 104.211 554.344 102.461 554.812 100.883C555.297 99.2891 555.984 97.9219 556.875 96.7812C557.781 95.625 558.875 94.7344 560.156 94.1094C561.438 93.4844 562.883 93.1719 564.492 93.1719C566.227 93.1719 567.648 93.5078 568.758 94.1797C569.883 94.8359 570.781 95.7578 571.453 96.9453C572.141 98.1328 572.672 99.5234 573.047 101.117C573.438 102.695 573.766 104.398 574.031 106.227V106.812C573.766 108.531 573.398 110.156 572.93 111.688C572.477 113.203 571.883 114.547 571.148 115.719C570.414 116.891 569.492 117.812 568.383 118.484C567.289 119.141 565.977 119.469 564.445 119.469C562.852 119.469 561.414 119.148 560.133 118.508C558.867 117.867 557.781 116.969 556.875 115.812C555.984 114.656 555.297 113.297 554.812 111.734C554.344 110.172 554.109 108.469 554.109 106.625ZM562.008 106.133V106.625C562.008 107.578 562.094 108.461 562.266 109.273C562.453 110.086 562.734 110.805 563.109 111.43C563.484 112.039 563.945 112.516 564.492 112.859C565.055 113.203 565.711 113.375 566.461 113.375C567.602 113.375 568.523 113.133 569.227 112.648C569.93 112.164 570.438 111.477 570.75 110.586C571.062 109.695 571.195 108.648 571.148 107.445V105.594C571.18 104.562 571.109 103.656 570.938 102.875C570.766 102.078 570.492 101.414 570.117 100.883C569.758 100.352 569.273 99.9531 568.664 99.6875C568.07 99.4062 567.352 99.2656 566.508 99.2656C565.773 99.2656 565.125 99.4375 564.562 99.7812C564 100.125 563.531 100.609 563.156 101.234C562.781 101.844 562.492 102.57 562.289 103.414C562.102 104.242 562.008 105.148 562.008 106.133ZM590.438 99.0547V119H582.539V93.6406H589.945L590.438 99.0547ZM589.5 105.453L587.648 105.5C587.648 103.562 587.883 101.836 588.352 100.32C588.82 98.7891 589.484 97.4922 590.344 96.4297C591.203 95.3672 592.227 94.5625 593.414 94.0156C594.617 93.4531 595.953 93.1719 597.422 93.1719C598.594 93.1719 599.664 93.3438 600.633 93.6875C601.617 94.0312 602.461 94.5859 603.164 95.3516C603.883 96.1172 604.43 97.1328 604.805 98.3984C605.195 99.6484 605.391 101.195 605.391 103.039V119H597.445V103.016C597.445 102 597.305 101.227 597.023 100.695C596.742 100.148 596.336 99.7734 595.805 99.5703C595.273 99.3672 594.625 99.2656 593.859 99.2656C593.047 99.2656 592.359 99.4219 591.797 99.7344C591.234 100.047 590.781 100.484 590.438 101.047C590.109 101.594 589.867 102.242 589.711 102.992C589.57 103.742 589.5 104.562 589.5 105.453Z" fill="black"/>
<path d="M1134 0H1348C1356.28 0 1363 6.71573 1363 15V148C1363 156.284 1356.28 163 1348 163H1134V0Z" fill="#FEDFD4"/>
<path d="M1217.58 64.1667C1217.58 66.0281 1218.51 67.7419 1220.09 69.2434C1221.67 70.7429 1223.94 72.0619 1226.71 73.1553C1232.26 75.343 1239.93 76.6667 1248.5 76.6667C1257.07 76.6667 1264.74 75.343 1270.29 73.1553C1273.06 72.0619 1275.33 70.7429 1276.91 69.2434C1278.49 67.7419 1279.42 66.0281 1279.42 64.1667C1279.42 62.3052 1278.49 60.5914 1276.91 59.0899C1275.33 57.5904 1273.06 56.2714 1270.29 55.178C1264.74 52.9903 1257.07 51.6667 1248.5 51.6667C1239.93 51.6667 1232.26 52.9903 1226.71 55.178C1223.94 56.2714 1221.67 57.5904 1220.09 59.0899C1218.51 60.5914 1217.58 62.3052 1217.58 64.1667ZM1221.62 64.1667C1221.62 63.0283 1222.37 61.8878 1223.88 60.7921C1225.37 59.7041 1227.52 58.7293 1230.11 57.9144C1235.28 56.2864 1242.07 55.3333 1248.5 55.3333C1254.93 55.3333 1261.72 56.2864 1266.89 57.9144C1269.48 58.7293 1271.63 59.7041 1273.12 60.7921C1274.63 61.8878 1275.37 63.0283 1275.37 64.1667C1275.37 65.305 1274.63 66.4455 1273.12 67.5412C1271.63 68.6292 1269.48 69.604 1266.89 70.4189C1261.72 72.0469 1254.93 73 1248.5 73C1242.07 73 1235.28 72.0469 1230.11 70.4189C1227.52 69.604 1225.37 68.6292 1223.88 67.5412C1222.37 66.4455 1221.62 65.305 1221.62 64.1667Z" fill="white" stroke="white"/>
<path d="M1217.58 74.8333C1217.58 76.6948 1218.51 78.4086 1220.09 79.9101C1221.67 81.4096 1223.94 82.7286 1226.71 83.822C1232.26 86.0097 1239.93 87.3333 1248.5 87.3333C1257.07 87.3333 1264.74 86.0097 1270.29 83.822C1273.06 82.7286 1275.33 81.4096 1276.91 79.9101C1278.49 78.4086 1279.42 76.6948 1279.42 74.8333V64.1667C1279.42 63.6576 1279.19 63.1851 1278.8 62.8479C1278.42 62.5126 1277.91 62.3333 1277.4 62.3333C1276.88 62.3333 1276.37 62.5126 1275.99 62.8479C1275.61 63.1851 1275.37 63.6576 1275.37 64.1667V74.8333C1275.37 75.9717 1274.63 77.1122 1273.12 78.2079C1271.63 79.2959 1269.48 80.2707 1266.89 81.0856C1261.72 82.7136 1254.93 83.6667 1248.5 83.6667C1242.07 83.6667 1235.28 82.7136 1230.11 81.0856C1227.52 80.2707 1225.37 79.2959 1223.88 78.2079C1222.37 77.1122 1221.62 75.9717 1221.62 74.8333V64.1667C1221.62 63.6576 1221.39 63.1851 1221.01 62.8479C1220.63 62.5126 1220.12 62.3333 1219.6 62.3333C1219.09 62.3333 1218.58 62.5126 1218.2 62.8479C1217.81 63.1851 1217.58 63.6576 1217.58 64.1667V74.8333Z" fill="white" stroke="white"/>
<path d="M1217.58 86.8333C1217.58 88.6948 1218.51 90.4086 1220.09 91.9101C1221.67 93.4095 1223.94 94.7286 1226.71 95.8219C1232.26 98.0097 1239.93 99.3333 1248.5 99.3333C1257.07 99.3333 1264.74 98.0097 1270.29 95.8219C1273.06 94.7286 1275.33 93.4095 1276.91 91.9101C1278.49 90.4086 1279.42 88.6948 1279.42 86.8333V74.8333C1279.42 74.3243 1279.19 73.8517 1278.8 73.5146C1278.42 73.1792 1277.91 73 1277.4 73C1276.88 73 1276.37 73.1792 1275.99 73.5146C1275.61 73.8517 1275.37 74.3243 1275.37 74.8333V86.8333C1275.37 87.9717 1274.63 89.1122 1273.12 90.2079C1271.63 91.2958 1269.48 92.2707 1266.89 93.0856C1261.72 94.7136 1254.93 95.6667 1248.5 95.6667C1242.07 95.6667 1235.28 94.7136 1230.11 93.0856C1227.52 92.2707 1225.37 91.2958 1223.88 90.2079C1222.37 89.1122 1221.62 87.9717 1221.62 86.8333V74.8333C1221.62 74.3243 1221.39 73.8517 1221.01 73.5146C1220.63 73.1792 1220.12 73 1219.6 73C1219.09 73 1218.58 73.1792 1218.2 73.5146C1217.81 73.8517 1217.58 74.3243 1217.58 74.8333V86.8333Z" fill="white" stroke="white"/>
<path d="M1217.58 98.8333C1217.58 100.695 1218.51 102.409 1220.09 103.91C1221.67 105.41 1223.94 106.729 1226.71 107.822C1232.26 110.01 1239.93 111.333 1248.5 111.333C1257.07 111.333 1264.74 110.01 1270.29 107.822C1273.06 106.729 1275.33 105.41 1276.91 103.91C1278.49 102.409 1279.42 100.695 1279.42 98.8333V86.8333C1279.42 86.3243 1279.19 85.8517 1278.8 85.5146C1278.42 85.1792 1277.91 85 1277.4 85C1276.88 85 1276.37 85.1792 1275.99 85.5146C1275.61 85.8517 1275.37 86.3243 1275.37 86.8333V98.8333C1275.37 99.9717 1274.63 101.112 1273.12 102.208C1271.63 103.296 1269.48 104.271 1266.89 105.086C1261.72 106.714 1254.93 107.667 1248.5 107.667C1242.07 107.667 1235.28 106.714 1230.11 105.086C1227.52 104.271 1225.37 103.296 1223.88 102.208C1222.37 101.112 1221.62 99.9717 1221.62 98.8333V86.8333C1221.62 86.3243 1221.39 85.8517 1221.01 85.5146C1220.63 85.1792 1220.12 85 1219.6 85C1219.09 85 1218.58 85.1792 1218.2 85.5146C1217.81 85.8517 1217.58 86.3243 1217.58 86.8333V98.8333Z" fill="white" stroke="white"/>
</svg>
